<svg width="24" height="24" viewBox="0 0 24 24" fill="none" xmlns="http://www.w3.org/2000/svg">
<path d="M14 19C17.771 19 19.657 19 20.828 17.828C22 16.657 22 14.771 22 11C22 7.229 22 5.343 20.828 4.172C19.657 3 17.771 3 14 3H10C6.229 3 4.343 3 3.172 4.172C2 5.343 2 7.229 2 11C2 14.771 2 16.657 3.172 17.828C3.825 18.482 4.7 18.771 6 18.898" stroke="#333333" stroke-width="2" stroke-linecap="round" stroke-linejoin="round"/>
<path d="M15.207 6.79329C15.1139 6.70006 15.0032 6.62616 14.8815 6.57582C14.7597 6.52549 14.6292 6.49972 14.4974 6.5C14.3656 6.50028 14.2352 6.5266 14.1136 6.57745C13.9921 6.6283 13.8817 6.70267 13.789 6.79629L9.23901 11.3933C8.96354 11.6715 8.77579 12.0244 8.69901 12.4083L8.51901 13.3043C8.48665 13.4658 8.49467 13.6328 8.54236 13.7904C8.59006 13.948 8.67595 14.0914 8.79241 14.2079C8.90886 14.3244 9.05228 14.4102 9.20991 14.4579C9.36755 14.5056 9.53452 14.5137 9.69601 14.4813L10.592 14.3013C10.9759 14.2245 11.3288 14.0368 11.607 13.7613L16.204 9.21129C16.2976 9.11857 16.372 9.00825 16.4229 8.88668C16.4737 8.76511 16.5 8.63469 16.5003 8.50292C16.5006 8.37114 16.4748 8.24062 16.4245 8.11883C16.3741 7.99705 16.3002 7.88642 16.207 7.79329L15.207 6.79329V6.79329Z" stroke="#333333" stroke-width="2" stroke-linecap="round" stroke-linejoin="round"/>
<path d="M12.5 9.5L13.5 10.5" stroke="#333333" stroke-width="2"/>
<path d="M14 19C12.764 19 11.402 19.5 10.159 20.145C8.161 21.182 7.162 21.701 6.67 21.37C6.178 21.04 6.271 20.015 6.458 17.966L6.5 17.5" stroke="#333333" stroke-width="2" stroke-linecap="round"/>
</svg>
