<svg width="24" height="24" viewBox="0 0 18 18" fill="none" xmlns="http://www.w3.org/2000/svg">
<path fill-rule="evenodd" clip-rule="evenodd" d="M5.25 1.5C4.25544 1.5 3.30161 1.89509 2.59835 2.59835C1.89509 3.30161 1.5 4.25544 1.5 5.25V12.75C1.5 13.7446 1.89509 14.6984 2.59835 15.4017C3.30161 16.1049 4.25544 16.5 5.25 16.5H12.75C13.7446 16.5 14.6984 16.1049 15.4017 15.4017C16.1049 14.6984 16.5 13.7446 16.5 12.75V5.25C16.5 4.25544 16.1049 3.30161 15.4017 2.59835C14.6984 1.89509 13.7446 1.5 12.75 1.5H5.25ZM11.7975 8.013C11.8649 7.9411 11.9174 7.85664 11.9521 7.76443C11.9869 7.67222 12.0031 7.57408 11.9999 7.47561C11.9967 7.37713 11.9741 7.28025 11.9335 7.19049C11.8928 7.10074 11.8349 7.01987 11.763 6.9525C11.6911 6.88513 11.6066 6.83258 11.5144 6.79786C11.4222 6.76313 11.3241 6.74691 11.2256 6.75011C11.1271 6.75332 11.0302 6.77589 10.9405 6.81653C10.8507 6.85718 10.7699 6.9151 10.7025 6.987L8.39025 9.4545L7.248 8.43975C7.09834 8.31534 6.90619 8.25397 6.71212 8.26861C6.51806 8.28326 6.33729 8.37276 6.20799 8.51822C6.0787 8.66367 6.01101 8.85369 6.01922 9.04813C6.02743 9.24258 6.1109 9.42621 6.252 9.56025L7.9395 11.0602C8.08552 11.19 8.27637 11.2576 8.47147 11.2488C8.66657 11.2399 8.85054 11.1554 8.98425 11.013L11.7968 8.013H11.7975Z" fill="#40C84F"/>
</svg>
