<svg width="16" height="14" viewBox="0 0 16 14" fill="none" xmlns="http://www.w3.org/2000/svg">
<path d="M3.18542 2.20204V11.0136C3.18542 11.3058 3.31011 11.5859 3.53204 11.7925C3.75397 11.999 4.05498 12.1151 4.36884 12.1151H11.4693C11.7832 12.1151 12.0842 11.999 12.3062 11.7925C12.5281 11.5859 12.6528 11.3058 12.6528 11.0136V4.59328C12.6527 4.44655 12.6212 4.30129 12.5601 4.16605C12.4989 4.03081 12.4093 3.90831 12.2966 3.80575L9.66937 1.4145C9.44829 1.2133 9.15137 1.10062 8.84216 1.10059H4.36884C4.05498 1.10059 3.75397 1.21663 3.53204 1.42319C3.31011 1.62975 3.18542 1.90991 3.18542 2.20204V2.20204Z" stroke="#333333" stroke-width="1.10145" stroke-linecap="round" stroke-linejoin="round"/>
<path d="M9.10254 1.10059V3.30348C9.10254 3.59561 9.22722 3.87577 9.44915 4.08233C9.67109 4.28889 9.97209 4.40493 10.286 4.40493H12.6528" stroke="#333333" stroke-width="1.10145" stroke-linejoin="round"/>
</svg>
