<svg width="16" height="16" viewBox="0 0 16 16" fill="none" xmlns="http://www.w3.org/2000/svg">
<path d="M13.414 11.9312C13.1193 11.2331 12.6916 10.5989 12.1547 10.0641C11.6194 9.52767 10.9853 9.10001 10.2875 8.80469C10.2812 8.80156 10.275 8.8 10.2687 8.79688C11.2422 8.09375 11.875 6.94844 11.875 5.65625C11.875 3.51562 10.1406 1.78125 7.99998 1.78125C5.85935 1.78125 4.12498 3.51562 4.12498 5.65625C4.12498 6.94844 4.75779 8.09375 5.73123 8.79844C5.72498 8.80156 5.71873 8.80312 5.71248 8.80625C5.01248 9.10156 4.38435 9.525 3.84529 10.0656C3.3089 10.6009 2.88123 11.235 2.58592 11.9328C2.29579 12.616 2.13932 13.3485 2.12498 14.0906C2.12456 14.1073 2.12749 14.1239 2.13358 14.1394C2.13968 14.1549 2.14882 14.1691 2.16047 14.181C2.17212 14.193 2.18604 14.2025 2.20141 14.2089C2.21678 14.2154 2.2333 14.2188 2.24998 14.2188H3.18748C3.25623 14.2188 3.31092 14.1641 3.31248 14.0969C3.34373 12.8906 3.8281 11.7609 4.68435 10.9047C5.57029 10.0188 6.74685 9.53125 7.99998 9.53125C9.2531 9.53125 10.4297 10.0188 11.3156 10.9047C12.1719 11.7609 12.6562 12.8906 12.6875 14.0969C12.689 14.1656 12.7437 14.2188 12.8125 14.2188H13.75C13.7667 14.2188 13.7832 14.2154 13.7985 14.2089C13.8139 14.2025 13.8278 14.193 13.8395 14.181C13.8511 14.1691 13.8603 14.1549 13.8664 14.1394C13.8725 14.1239 13.8754 14.1073 13.875 14.0906C13.8594 13.3437 13.7047 12.6172 13.414 11.9312V11.9312ZM7.99998 8.34375C7.28279 8.34375 6.60779 8.06406 6.09998 7.55625C5.59216 7.04844 5.31248 6.37344 5.31248 5.65625C5.31248 4.93906 5.59216 4.26406 6.09998 3.75625C6.60779 3.24844 7.28279 2.96875 7.99998 2.96875C8.71716 2.96875 9.39216 3.24844 9.89998 3.75625C10.4078 4.26406 10.6875 4.93906 10.6875 5.65625C10.6875 6.37344 10.4078 7.04844 9.89998 7.55625C9.39216 8.06406 8.71716 8.34375 7.99998 8.34375Z" fill="#333333"/>
</svg>
