<svg width="25" height="18" viewBox="0 0 25 18" fill="none" xmlns="http://www.w3.org/2000/svg">
<path d="M20.8 3.61674H9.984V9.67575H8.83199V7.61621C8.83066 6.44932 8.35022 5.33059 7.49608 4.50546C6.64194 3.68034 5.48386 3.2162 4.27591 3.21488H1.664V0H0V17.28H1.664V14.8817L23.296 15.0489V17.28H24.96V7.63535C24.9587 6.56992 24.5201 5.54847 23.7402 4.7951C22.9603 4.04173 21.9029 3.61795 20.8 3.61674ZM1.664 4.82233H4.27591C5.04267 4.82316 5.77778 5.11778 6.31996 5.64153C6.86214 6.16529 7.16712 6.87541 7.16799 7.61611V9.67564H1.664V4.82233ZM23.296 13.4414L1.664 13.2743V11.2832H23.296V13.4414ZM23.296 9.67575H11.648V5.22419H20.8C21.4617 5.22492 22.0962 5.47918 22.5641 5.93121C23.032 6.38323 23.2952 6.99609 23.296 7.63535V9.67575Z" fill="#333333"/>
</svg>
