<svg width="14" height="12" viewBox="0 0 14 12" fill="none" xmlns="http://www.w3.org/2000/svg">
<path d="M6.71869 8.355L2.85401 4.2435C2.39792 3.75975 2.76859 3 3.46078 3H11.1902C11.3451 2.99988 11.4967 3.04132 11.627 3.11936C11.7573 3.1974 11.8606 3.30873 11.9246 3.44002C11.9886 3.57131 12.0106 3.717 11.988 3.85963C11.9654 4.00227 11.899 4.1358 11.7969 4.24425L7.93225 8.35425C7.85661 8.43481 7.76334 8.49937 7.65868 8.54361C7.55402 8.58785 7.44041 8.61073 7.32547 8.61073C7.21053 8.61073 7.09691 8.58785 6.99226 8.54361C6.8876 8.49937 6.79433 8.43481 6.71869 8.35425V8.355Z" fill="#333333"/>
</svg>
