<svg width="22" height="21" viewBox="0 0 22 21" fill="none" xmlns="http://www.w3.org/2000/svg">
<path d="M6.6825 9.51167L14.2202 3.21692C15.1071 2.47405 16.5 3.0778 16.5 4.20523L16.5 16.7947C16.5002 17.0471 16.4243 17.2941 16.2812 17.5063C16.1381 17.7184 15.934 17.8867 15.6933 17.991C15.4526 18.0953 15.1855 18.1311 14.924 18.0943C14.6625 18.0574 14.4177 17.9493 14.2189 17.783L6.68388 11.4883C6.53619 11.3651 6.41782 11.2132 6.33672 11.0427C6.25561 10.8723 6.21365 10.6872 6.21365 10.5C6.21365 10.3128 6.25561 10.1277 6.33672 9.95725C6.41782 9.78679 6.53619 9.63486 6.68388 9.51167L6.6825 9.51167Z" fill="white"/>
</svg>
