<svg width="21" height="20" viewBox="0 0 21 20" fill="none" xmlns="http://www.w3.org/2000/svg">
<path d="M9.51149 13.925L3.21674 7.0725C2.47386 6.26625 3.07761 5 4.20505 5H16.7946C17.0469 4.99979 17.2939 5.06886 17.5061 5.19893C17.7182 5.32899 17.8865 5.51455 17.9908 5.73337C18.0951 5.95219 18.131 6.195 18.0941 6.43272C18.0572 6.67045 17.9491 6.89301 17.7829 7.07375L11.4881 13.9237C11.3649 14.058 11.213 14.1656 11.0425 14.2393C10.8721 14.3131 10.687 14.3512 10.4998 14.3512C10.3126 14.3512 10.1275 14.3131 9.95707 14.2393C9.78661 14.1656 9.63468 14.058 9.51149 13.9237V13.925Z" fill="#333333"/>
</svg>
