<svg width="16" height="16" viewBox="0 0 16 16" fill="none" xmlns="http://www.w3.org/2000/svg">
<path d="M9.21336 14.6663H6.78669C6.63465 14.6664 6.48716 14.6144 6.36869 14.5191C6.25022 14.4238 6.1679 14.2909 6.13536 14.1423L5.86402 12.8863C5.50206 12.7277 5.15885 12.5294 4.84069 12.295L3.61602 12.685C3.47107 12.7312 3.31466 12.7265 3.17277 12.6715C3.03088 12.6166 2.91206 12.5148 2.83602 12.383L1.62002 10.2823C1.54479 10.1504 1.51655 9.99689 1.53992 9.84684C1.56329 9.69679 1.6369 9.55912 1.74869 9.45634L2.69869 8.58967C2.65549 8.19708 2.65549 7.80093 2.69869 7.40834L1.74869 6.54367C1.63674 6.44086 1.56303 6.30306 1.53966 6.15286C1.51628 6.00267 1.54462 5.84899 1.62002 5.71701L2.83336 3.61501C2.90939 3.48322 3.02822 3.3814 3.1701 3.32647C3.31199 3.27153 3.4684 3.26678 3.61336 3.31301L4.83802 3.70301C5.00069 3.58301 5.17002 3.47101 5.34469 3.36967C5.51336 3.27501 5.68669 3.18901 5.86402 3.11234L6.13602 1.85767C6.16841 1.70914 6.25058 1.57613 6.36892 1.48071C6.48726 1.38528 6.63467 1.33317 6.78669 1.33301H9.21336C9.36538 1.33317 9.51278 1.38528 9.63113 1.48071C9.74947 1.57613 9.83164 1.70914 9.86402 1.85767L10.1387 3.11301C10.5004 3.27161 10.8434 3.46994 11.1614 3.70434L12.3867 3.31434C12.5316 3.26829 12.6878 3.27312 12.8296 3.32805C12.9713 3.38298 13.09 3.48469 13.166 3.61634L14.3794 5.71834C14.534 5.98967 14.4807 6.33301 14.2507 6.54434L13.3007 7.41101C13.3439 7.8036 13.3439 8.19975 13.3007 8.59234L14.2507 9.45901C14.4807 9.67101 14.534 10.0137 14.3794 10.285L13.166 12.387C13.09 12.5188 12.9712 12.6206 12.8293 12.6756C12.6874 12.7305 12.531 12.7352 12.386 12.689L11.1614 12.299C10.8434 12.5332 10.5004 12.7313 10.1387 12.8897L9.86402 14.1423C9.83151 14.2908 9.74928 14.4236 9.63095 14.5189C9.51262 14.6142 9.36529 14.6662 9.21336 14.6663ZM5.08002 10.819L5.62669 11.219C5.75002 11.3097 5.87802 11.393 6.01136 11.469C6.13669 11.5417 6.26469 11.607 6.39736 11.6663L7.01936 11.939L7.32402 13.333H8.67736L8.98202 11.9383L9.60402 11.6657C9.87536 11.5457 10.1334 11.397 10.3727 11.2217L10.9194 10.8217L12.2807 11.255L12.9574 10.083L11.902 9.12101L11.9767 8.44634C12.01 8.15101 12.01 7.85301 11.9767 7.55834L11.902 6.88367L12.958 5.91967L12.2807 4.74701L10.92 5.18034L10.3727 4.78034C10.1332 4.60414 9.87553 4.45416 9.60402 4.33301L8.98202 4.06034L8.67736 2.66634H7.32402L7.01736 4.06101L6.39736 4.33301C6.12548 4.45208 5.86768 4.60099 5.62869 4.77701L5.08136 5.17701L3.72136 4.74367L3.04336 5.91967L4.09869 6.88034L4.02402 7.55567C3.99069 7.85101 3.99069 8.14901 4.02402 8.44367L4.09869 9.11834L3.04336 10.0803L3.72002 11.2523L5.08002 10.819V10.819ZM7.99736 10.6663C7.29011 10.6663 6.61184 10.3854 6.11174 9.88529C5.61164 9.3852 5.33069 8.70692 5.33069 7.99967C5.33069 7.29243 5.61164 6.61415 6.11174 6.11406C6.61184 5.61396 7.29011 5.33301 7.99736 5.33301C8.7046 5.33301 9.38288 5.61396 9.88298 6.11406C10.3831 6.61415 10.664 7.29243 10.664 7.99967C10.664 8.70692 10.3831 9.3852 9.88298 9.88529C9.38288 10.3854 8.7046 10.6663 7.99736 10.6663ZM7.99736 6.66634C7.73626 6.66661 7.48099 6.74352 7.26321 6.88755C7.04543 7.03157 6.87473 7.23637 6.77229 7.47653C6.66985 7.71669 6.64017 7.98164 6.68694 8.23851C6.73371 8.49539 6.85487 8.73287 7.03539 8.92151C7.2159 9.11015 7.44783 9.24164 7.7024 9.29967C7.95696 9.35769 8.22296 9.3397 8.4674 9.24792C8.71183 9.15614 8.92394 8.99461 9.0774 8.78338C9.23087 8.57215 9.31894 8.32051 9.33069 8.05967V8.32634V7.99967C9.33069 7.64605 9.19022 7.30691 8.94017 7.05687C8.69012 6.80682 8.35098 6.66634 7.99736 6.66634Z" fill="#333333"/>
</svg>
