<svg width="22" height="22" viewBox="0 0 22 22" fill="none" xmlns="http://www.w3.org/2000/svg">
<path d="M19.2938 17.5055C18.8423 16.439 18.1871 15.4702 17.3646 14.6531C16.5446 13.8337 15.5733 13.1804 14.5042 12.7293C14.4947 12.7245 14.4851 12.7221 14.4755 12.7173C15.9667 11.6432 16.9361 9.89359 16.9361 7.9196C16.9361 4.6495 14.2792 2 11 2C7.72077 2 5.06387 4.6495 5.06387 7.9196C5.06387 9.89359 6.03328 11.6432 7.52449 12.7197C7.51492 12.7245 7.50534 12.7269 7.49577 12.7317C6.42343 13.1828 5.46121 13.8296 4.63541 14.6555C3.81371 15.4732 3.15857 16.4418 2.70617 17.5079C2.26173 18.5516 2.02204 19.6706 2.00006 20.8043C1.99942 20.8297 2.0039 20.8551 2.01324 20.8788C2.02258 20.9025 2.03658 20.9242 2.05442 20.9424C2.07227 20.9606 2.0936 20.9751 2.11715 20.985C2.1407 20.9949 2.16599 21 2.19155 21H3.62771C3.73303 21 3.8168 20.9165 3.8192 20.8138C3.86707 18.9711 4.60908 17.2454 5.92078 15.9373C7.27795 14.5839 9.08033 13.8392 11 13.8392C12.9197 13.8392 14.722 14.5839 16.0792 15.9373C17.3909 17.2454 18.1329 18.9711 18.1808 20.8138C18.1832 20.9188 18.267 21 18.3723 21H19.8085C19.834 21 19.8593 20.9949 19.8829 20.985C19.9064 20.9751 19.9277 20.9606 19.9456 20.9424C19.9634 20.9242 19.9774 20.9025 19.9868 20.8788C19.9961 20.8551 20.0006 20.8297 19.9999 20.8043C19.976 19.6633 19.739 18.5534 19.2938 17.5055ZM11 12.0251C9.90134 12.0251 8.8673 11.5979 8.08938 10.8221C7.31146 10.0464 6.88301 9.0152 6.88301 7.9196C6.88301 6.824 7.31146 5.79284 8.08938 5.01709C8.8673 4.24133 9.90134 3.81407 11 3.81407C12.0987 3.81407 13.1327 4.24133 13.9106 5.01709C14.6885 5.79284 15.117 6.824 15.117 7.9196C15.117 9.0152 14.6885 10.0464 13.9106 10.8221C13.1327 11.5979 12.0987 12.0251 11 12.0251Z" fill="#333333"/>
</svg>
