<svg width="16" height="16" viewBox="0 0 16 16" fill="none" xmlns="http://www.w3.org/2000/svg">
<path d="M4.66669 4.00033C4.8435 4.00033 5.01307 3.93009 5.13809 3.80506C5.26312 3.68004 5.33335 3.51047 5.33335 3.33366C5.33335 3.15685 5.26312 2.98728 5.13809 2.86225C5.01307 2.73723 4.8435 2.66699 4.66669 2.66699H3.33335C3.15654 2.66699 2.98697 2.73723 2.86195 2.86225C2.73693 2.98728 2.66669 3.15685 2.66669 3.33366V12.667C2.66669 12.8438 2.73693 13.0134 2.86195 13.1384C2.98697 13.2634 3.15654 13.3337 3.33335 13.3337H4.66669C4.8435 13.3337 5.01307 13.2634 5.13809 13.1384C5.26312 13.0134 5.33335 12.8438 5.33335 12.667C5.33335 12.4902 5.26312 12.3206 5.13809 12.1956C5.01307 12.0706 4.8435 12.0003 4.66669 12.0003H4.00002V4.00033H4.66669ZM13.88 7.61366L12 4.94699C11.8981 4.80327 11.7433 4.70575 11.5697 4.67577C11.3961 4.64579 11.2176 4.68578 11.0734 4.78699C11.0013 4.83752 10.9399 4.90182 10.8928 4.9762C10.8456 5.05057 10.8137 5.13354 10.7988 5.22031C10.784 5.30709 10.7864 5.39595 10.8061 5.48177C10.8257 5.56759 10.8622 5.64867 10.9134 5.72033L12.06 7.33366H6.66669C6.48988 7.33366 6.32031 7.4039 6.19528 7.52892C6.07026 7.65394 6.00002 7.82351 6.00002 8.00032C6.00002 8.17714 6.07026 8.3467 6.19528 8.47173C6.32031 8.59675 6.48988 8.66699 6.66669 8.66699H12L10.8 10.267C10.7475 10.337 10.7093 10.4167 10.6875 10.5015C10.6658 10.5863 10.661 10.6746 10.6734 10.7613C10.6858 10.8479 10.7151 10.9313 10.7597 11.0067C10.8043 11.082 10.8633 11.1478 10.9334 11.2003C11.0488 11.2869 11.1891 11.3337 11.3334 11.3337C11.4368 11.3337 11.5389 11.3096 11.6315 11.2633C11.7241 11.217 11.8046 11.1498 11.8667 11.067L13.8667 8.40032C13.9521 8.28757 13.9994 8.15058 14.0018 8.00917C14.0042 7.86775 13.9615 7.72924 13.88 7.61366V7.61366Z" fill="#333333"/>
</svg>
