<svg width="16" height="15" viewBox="0 0 16 15" fill="none" xmlns="http://www.w3.org/2000/svg">
<path d="M12.5783 2.68164H3.31334C2.7868 2.68164 2.28182 2.87632 1.9095 3.22286C1.53717 3.56939 1.328 4.03939 1.328 4.52947V10.6889C1.328 11.179 1.53717 11.649 1.9095 11.9955C2.28182 12.342 2.7868 12.5367 3.31334 12.5367H12.5783C13.1048 12.5367 13.6098 12.342 13.9821 11.9955C14.3544 11.649 14.5636 11.179 14.5636 10.6889V4.52947C14.5636 4.03939 14.3544 3.56939 13.9821 3.22286C13.6098 2.87632 13.1048 2.68164 12.5783 2.68164V2.68164ZM12.1349 3.91352L7.9458 6.83925L3.75673 3.91352H12.1349ZM12.5783 11.3048H3.31334C3.13783 11.3048 2.9695 11.2399 2.84539 11.1244C2.72129 11.0089 2.65156 10.8522 2.65156 10.6889V4.68345L7.54873 8.10193C7.66328 8.18189 7.80261 8.22512 7.9458 8.22512C8.08899 8.22512 8.22832 8.18189 8.34287 8.10193L13.24 4.68345V10.6889C13.24 10.8522 13.1703 11.0089 13.0462 11.1244C12.9221 11.2399 12.7538 11.3048 12.5783 11.3048Z" fill="#333333"/>
</svg>
