<svg width="16" height="16" viewBox="0 0 16 16" fill="none" xmlns="http://www.w3.org/2000/svg">
<g clip-path="url(#clip0_517_1270)">
<rect width="15.6765" height="15.6765" fill="#4AC2EF"/>
<path d="M15.1973 3.36903C14.6752 3.60038 14.1143 3.75669 13.5247 3.82735C14.1331 3.46331 14.5882 2.89037 14.8052 2.21542C14.2336 2.55493 13.6081 2.79391 12.9557 2.92197C12.517 2.45356 11.9359 2.14309 11.3027 2.03876C10.6695 1.93443 10.0195 2.04209 9.45373 2.345C8.88796 2.64792 8.43801 3.12915 8.17376 3.71399C7.90951 4.29883 7.84574 4.95455 7.99234 5.57934C6.83415 5.52119 5.70114 5.22016 4.66682 4.69578C3.6325 4.17141 2.72001 3.43541 1.98854 2.53555C1.73844 2.96698 1.59463 3.4672 1.59463 3.99992C1.59435 4.4795 1.71245 4.95173 1.93845 5.37471C2.16445 5.7977 2.49136 6.15836 2.89018 6.4247C2.42765 6.40998 1.97533 6.28501 1.57087 6.06017V6.09769C1.57082 6.77031 1.80349 7.42223 2.22939 7.94284C2.65529 8.46345 3.24819 8.82067 3.90748 8.9539C3.47842 9.07002 3.02857 9.08712 2.59193 9.00392C2.77794 9.58267 3.14028 10.0888 3.62822 10.4514C4.11616 10.814 4.70527 11.0149 5.31308 11.026C4.28129 11.836 3.00703 12.2754 1.69529 12.2734C1.46293 12.2735 1.23077 12.2599 1 12.2328C2.33149 13.0889 3.88143 13.5432 5.46439 13.5415C10.8229 13.5415 13.7523 9.10334 13.7523 5.2542C13.7523 5.12915 13.7492 5.00285 13.7435 4.87779C14.3133 4.46573 14.8052 3.95546 15.196 3.37091L15.1973 3.36903V3.36903Z" fill="white"/>
</g>
<defs>
<clipPath id="clip0_517_1270">
<rect width="15.6765" height="15.6765" fill="white"/>
</clipPath>
</defs>
</svg>
