<svg width="16" height="16" viewBox="0 0 16 16" fill="none" xmlns="http://www.w3.org/2000/svg">
<g clip-path="url(#clip0_517_1284)">
<rect width="15.6765" height="15.6765" fill="#1877F2"/>
<path d="M15.3499 7.88431C15.3499 3.73574 11.9869 0.37267 7.83829 0.37267C3.68973 0.37267 0.32666 3.73574 0.32666 7.88431C0.32666 11.6336 3.07356 14.7412 6.6646 15.3047V10.0556H4.75735V7.88431H6.6646V6.2294C6.6646 4.34679 7.78604 3.3069 9.50186 3.3069C10.3237 3.3069 11.1833 3.45361 11.1833 3.45361V5.30218H10.2361C9.30299 5.30218 9.01199 5.88121 9.01199 6.47524V7.88431H11.0953L10.7623 10.0556H9.01199V15.3047C12.603 14.7412 15.3499 11.6336 15.3499 7.88431Z" fill="white"/>
</g>
<defs>
<clipPath id="clip0_517_1284">
<rect width="15.6765" height="15.6765" fill="white"/>
</clipPath>
</defs>
</svg>
