<svg width="14" height="14" viewBox="0 0 14 14" fill="none" xmlns="http://www.w3.org/2000/svg">
<path d="M12.8028 5.35442C12.7661 5.24643 12.6986 5.15154 12.6086 5.08146C12.5186 5.01138 12.4101 4.96919 12.2964 4.96009L8.97084 4.69584L7.53176 1.51026C7.48593 1.40766 7.41138 1.32051 7.31712 1.25934C7.22285 1.19817 7.1129 1.16559 7.00053 1.16553C6.88816 1.16547 6.77817 1.19793 6.68384 1.25899C6.58951 1.32006 6.51487 1.40712 6.46892 1.50968L5.02984 4.69584L1.70426 4.96009C1.59252 4.96894 1.4857 5.0098 1.39658 5.07777C1.30746 5.14574 1.2398 5.23795 1.20171 5.34336C1.16362 5.44877 1.1567 5.56293 1.18179 5.67217C1.20688 5.78141 1.26291 5.88111 1.34317 5.95934L3.80076 8.35509L2.93159 12.1188C2.9052 12.2327 2.91366 12.3519 2.95587 12.461C2.99808 12.57 3.07209 12.6639 3.16831 12.7303C3.26452 12.7968 3.37849 12.8328 3.49543 12.8337C3.61237 12.8346 3.72688 12.8003 3.82409 12.7353L7.00034 10.6178L10.1766 12.7353C10.276 12.8013 10.3931 12.8353 10.5124 12.8327C10.6316 12.83 10.7472 12.791 10.8436 12.7207C10.9399 12.6505 11.0125 12.5524 11.0515 12.4396C11.0904 12.3269 11.0939 12.205 11.0615 12.0902L9.99459 8.35684L12.6406 5.97568C12.8138 5.81934 12.8774 5.57551 12.8028 5.35442Z" fill="#E7E7E7"/>
</svg>
