<svg width="17" height="17" viewBox="0 0 17 17" fill="none" xmlns="http://www.w3.org/2000/svg">
<path d="M14.1667 8.5V15.5833H2.83337V8.5" stroke="#333333" stroke-linecap="round" stroke-linejoin="round"/>
<path d="M1.41669 4.95898H15.5834V8.50065H1.41669V4.95898Z" stroke="#333333" stroke-linecap="round" stroke-linejoin="round"/>
<path d="M8.5 15.584V4.95898" stroke="#333333" stroke-linecap="round" stroke-linejoin="round"/>
<path d="M8.50002 4.95866H5.31252C4.84287 4.95866 4.39245 4.77209 4.06035 4.43999C3.72826 4.1079 3.54169 3.65748 3.54169 3.18783C3.54169 2.71817 3.72826 2.26775 4.06035 1.93566C4.39245 1.60356 4.84287 1.41699 5.31252 1.41699C7.79169 1.41699 8.50002 4.95866 8.50002 4.95866Z" stroke="#333333" stroke-linecap="round" stroke-linejoin="round"/>
<path d="M8.5 4.95866H11.6875C12.1572 4.95866 12.6076 4.77209 12.9397 4.43999C13.2718 4.1079 13.4583 3.65748 13.4583 3.18783C13.4583 2.71817 13.2718 2.26775 12.9397 1.93566C12.6076 1.60356 12.1572 1.41699 11.6875 1.41699C9.20833 1.41699 8.5 4.95866 8.5 4.95866Z" stroke="#333333" stroke-linecap="round" stroke-linejoin="round"/>
</svg>
