<svg width="37" height="36" viewBox="0 0 37 36" fill="none" xmlns="http://www.w3.org/2000/svg">
<path d="M30.1685 18V33H6.16846V18" stroke="#333333" stroke-width="2" stroke-linecap="round" stroke-linejoin="round"/>
<path d="M3.16846 10.5H33.1685V18H3.16846V10.5Z" stroke="#333333" stroke-width="2" stroke-linecap="round" stroke-linejoin="round"/>
<path d="M18.1685 33V10.5" stroke="#333333" stroke-width="2" stroke-linecap="round" stroke-linejoin="round"/>
<path d="M18.1685 10.5H11.4185C10.4239 10.5 9.47007 10.1049 8.76681 9.40165C8.06355 8.69839 7.66846 7.74456 7.66846 6.75C7.66846 5.75544 8.06355 4.80161 8.76681 4.09835C9.47007 3.39509 10.4239 3 11.4185 3C16.6685 3 18.1685 10.5 18.1685 10.5Z" stroke="#333333" stroke-width="2" stroke-linecap="round" stroke-linejoin="round"/>
<path d="M18.1685 10.5H24.9185C25.913 10.5 26.8668 10.1049 27.5701 9.40165C28.2734 8.69839 28.6685 7.74456 28.6685 6.75C28.6685 5.75544 28.2734 4.80161 27.5701 4.09835C26.8668 3.39509 25.913 3 24.9185 3C19.6685 3 18.1685 10.5 18.1685 10.5Z" stroke="#333333" stroke-width="2" stroke-linecap="round" stroke-linejoin="round"/>
</svg>
