<svg width="25" height="25" viewBox="0 0 25 25" fill="none" xmlns="http://www.w3.org/2000/svg">
<path d="M2.53893 4.80475C1.5741 6.06004 0.846587 7.50687 0.422974 9.07864H6.81283L2.53893 4.80475Z" fill="#0052B4"/>
<path d="M24.1424 9.07866C23.7188 7.50694 22.9912 6.06011 22.0264 4.80481L17.7526 9.07866H24.1424Z" fill="#0052B4"/>
<path d="M0.422974 15.4871C0.846635 17.0588 1.57415 18.5056 2.53893 19.7609L6.81268 15.4871H0.422974Z" fill="#0052B4"/>
<path d="M19.7608 2.5391C18.5055 1.57428 17.0587 0.846757 15.4869 0.423096V6.8129L19.7608 2.5391Z" fill="#0052B4"/>
<path d="M4.80481 22.0265C6.06011 22.9913 7.50694 23.7188 9.07866 24.1425V17.7527L4.80481 22.0265Z" fill="#0052B4"/>
<path d="M9.07861 0.423096C7.50689 0.846757 6.06006 1.57428 4.80481 2.53905L9.07861 6.81285V0.423096Z" fill="#0052B4"/>
<path d="M15.4871 24.1425C17.0588 23.7188 18.5056 22.9913 19.7609 22.0265L15.4871 17.7527V24.1425Z" fill="#0052B4"/>
<path d="M17.7526 15.4871L22.0264 19.7609C22.9912 18.5057 23.7188 17.0588 24.1424 15.4871H17.7526Z" fill="#0052B4"/>
<path d="M24.4617 10.6807H13.885H13.885V0.103972C13.3605 0.035697 12.8258 0 12.2828 0C11.7397 0 11.2052 0.035697 10.6807 0.103972V10.6806V10.6807H0.103972C0.035697 11.2052 0 11.7398 0 12.2828C0 12.8259 0.035697 13.3605 0.103972 13.8849H10.6806H10.6807V24.4617C11.2052 24.53 11.7397 24.5657 12.2828 24.5657C12.8258 24.5657 13.3605 24.53 13.8849 24.4617V13.885V13.885H24.4617C24.53 13.3605 24.5657 12.8259 24.5657 12.2828C24.5657 11.7398 24.53 11.2052 24.4617 10.6807Z" fill="#D80027"/>
<path d="M15.4871 15.4871L20.9681 20.9681C21.2202 20.7161 21.4606 20.4527 21.6901 20.1796L16.9976 15.4871H15.4871V15.4871Z" fill="#D80027"/>
<path d="M9.07848 15.4871H9.07838L3.59741 20.9681C3.8494 21.2202 4.11286 21.4607 4.38596 21.6901L9.07848 16.9975V15.4871Z" fill="#D80027"/>
<path d="M9.07857 9.0787V9.07861L3.59755 3.59753C3.34546 3.84952 3.10499 4.11298 2.87555 4.38608L7.56812 9.07865H9.07857V9.0787Z" fill="#D80027"/>
<path d="M15.4871 9.07868L20.9681 3.59756C20.7161 3.34548 20.4527 3.105 20.1796 2.87561L15.4871 7.56818V9.07868Z" fill="#D80027"/>
</svg>
