<svg width="28" height="28" viewBox="0 0 28 28" fill="none" xmlns="http://www.w3.org/2000/svg">
<circle cx="14" cy="14" r="14" fill="#C4C4C4"/>
<path d="M12 8.99959C11.7348 8.99959 11.4804 9.10495 11.2929 9.29249C11.1054 9.48002 11 9.73438 11 9.99959C11 10.2648 11.1054 10.5192 11.2929 10.7067C11.4804 10.8942 11.7348 10.9996 12 10.9996H17.586L16.293 12.2926C16.1108 12.4812 16.01 12.7338 16.0123 12.996C16.0146 13.2582 16.1198 13.509 16.3052 13.6944C16.4906 13.8798 16.7414 13.985 17.0036 13.9873C17.2658 13.9895 17.5184 13.8888 17.707 13.7066L20.707 10.7066C20.8945 10.5191 20.9998 10.2648 20.9998 9.99959C20.9998 9.73443 20.8945 9.48012 20.707 9.29259L17.707 6.29259C17.6148 6.19708 17.5044 6.1209 17.3824 6.06849C17.2604 6.01608 17.1292 5.9885 16.9964 5.98734C16.8636 5.98619 16.7319 6.01149 16.609 6.06177C16.4861 6.11205 16.3745 6.18631 16.2806 6.2802C16.1867 6.37409 16.1125 6.48574 16.0622 6.60864C16.0119 6.73154 15.9866 6.86321 15.9877 6.99599C15.9889 7.12877 16.0165 7.25999 16.0689 7.382C16.1213 7.504 16.1975 7.61435 16.293 7.70659L17.586 8.99959H12Z" fill="#333333"/>
<path d="M15.9998 18.9996C16.265 18.9996 16.5194 18.8942 16.7069 18.7067C16.8944 18.5192 16.9998 18.2648 16.9998 17.9996C16.9998 17.7344 16.8944 17.48 16.7069 17.2925C16.5194 17.105 16.265 16.9996 15.9998 16.9996H10.4138L11.7068 15.7066C11.8023 15.6143 11.8785 15.504 11.9309 15.382C11.9833 15.26 12.0109 15.1288 12.012 14.996C12.0132 14.8632 11.9879 14.7315 11.9376 14.6086C11.8873 14.4857 11.8131 14.3741 11.7192 14.2802C11.6253 14.1863 11.5136 14.1121 11.3907 14.0618C11.2678 14.0115 11.1362 13.9862 11.0034 13.9873C10.8706 13.9885 10.7394 14.0161 10.6174 14.0685C10.4954 14.1209 10.385 14.1971 10.2928 14.2926L7.29279 17.2926C7.10532 17.4801 7 17.7344 7 17.9996C7 18.2648 7.10532 18.5191 7.29279 18.7066L10.2928 21.7066C10.4814 21.8888 10.734 21.9895 10.9962 21.9873C11.2584 21.985 11.5092 21.8798 11.6946 21.6944C11.88 21.509 11.9852 21.2582 11.9875 20.996C11.9897 20.7338 11.8889 20.4812 11.7068 20.2926L10.4138 18.9996H15.9998Z" fill="#333333"/>
</svg>
