<svg width="18" height="18" viewBox="0 0 18 18" fill="none" xmlns="http://www.w3.org/2000/svg">
<path d="M8.09998 7.6498C8.09998 7.53046 8.14739 7.416 8.23178 7.33161C8.31617 7.24721 8.43063 7.1998 8.54998 7.1998H11.7C11.8193 7.1998 11.9338 7.24721 12.0182 7.33161C12.1026 7.416 12.15 7.53046 12.15 7.6498C12.15 7.76915 12.1026 7.88361 12.0182 7.968C11.9338 8.05239 11.8193 8.0998 11.7 8.0998H8.54998C8.43063 8.0998 8.31617 8.05239 8.23178 7.968C8.14739 7.88361 8.09998 7.76915 8.09998 7.6498ZM8.09998 10.3498C8.09998 10.2305 8.14739 10.116 8.23178 10.0316C8.31617 9.94721 8.43063 9.8998 8.54998 9.8998H11.7C11.8193 9.8998 11.9338 9.94721 12.0182 10.0316C12.1026 10.116 12.15 10.2305 12.15 10.3498C12.15 10.4692 12.1026 10.5836 12.0182 10.668C11.9338 10.7524 11.8193 10.7998 11.7 10.7998H8.54998C8.43063 10.7998 8.31617 10.7524 8.23178 10.668C8.14739 10.5836 8.09998 10.4692 8.09998 10.3498ZM8.09998 13.0498C8.09998 12.9305 8.14739 12.816 8.23178 12.7316C8.31617 12.6472 8.43063 12.5998 8.54998 12.5998H11.7C11.8193 12.5998 11.9338 12.6472 12.0182 12.7316C12.1026 12.816 12.15 12.9305 12.15 13.0498C12.15 13.1692 12.1026 13.2836 12.0182 13.368C11.9338 13.4524 11.8193 13.4998 11.7 13.4998H8.54998C8.43063 13.4998 8.31617 13.4524 8.23178 13.368C8.14739 13.2836 8.09998 13.1692 8.09998 13.0498ZM7.19998 7.6498C7.19998 7.82883 7.12886 8.00051 7.00227 8.1271C6.87569 8.25369 6.704 8.3248 6.52498 8.3248C6.34595 8.3248 6.17427 8.25369 6.04768 8.1271C5.92109 8.00051 5.84998 7.82883 5.84998 7.6498C5.84998 7.47078 5.92109 7.29909 6.04768 7.17251C6.17427 7.04592 6.34595 6.9748 6.52498 6.9748C6.704 6.9748 6.87569 7.04592 7.00227 7.17251C7.12886 7.29909 7.19998 7.47078 7.19998 7.6498ZM7.19998 10.3498C7.19998 10.5288 7.12886 10.7005 7.00227 10.8271C6.87569 10.9537 6.704 11.0248 6.52498 11.0248C6.34595 11.0248 6.17427 10.9537 6.04768 10.8271C5.92109 10.7005 5.84998 10.5288 5.84998 10.3498C5.84998 10.1708 5.92109 9.99909 6.04768 9.87251C6.17427 9.74592 6.34595 9.6748 6.52498 9.6748C6.704 9.6748 6.87569 9.74592 7.00227 9.87251C7.12886 9.99909 7.19998 10.1708 7.19998 10.3498ZM6.52498 13.7248C6.704 13.7248 6.87569 13.6537 7.00227 13.5271C7.12886 13.4005 7.19998 13.2288 7.19998 13.0498C7.19998 12.8708 7.12886 12.6991 7.00227 12.5725C6.87569 12.4459 6.704 12.3748 6.52498 12.3748C6.34595 12.3748 6.17427 12.4459 6.04768 12.5725C5.92109 12.6991 5.84998 12.8708 5.84998 13.0498C5.84998 13.2288 5.92109 13.4005 6.04768 13.5271C6.17427 13.6537 6.34595 13.7248 6.52498 13.7248ZM6.37648 2.6998C6.46957 2.43648 6.64205 2.20852 6.87013 2.04733C7.09822 1.88614 7.37068 1.79966 7.64998 1.7998H10.35C10.6293 1.79966 10.9017 1.88614 11.1298 2.04733C11.3579 2.20852 11.5304 2.43648 11.6235 2.6998H13.05C13.408 2.6998 13.7514 2.84204 14.0046 3.09521C14.2577 3.34838 14.4 3.69176 14.4 4.0498V14.8498C14.4 15.2078 14.2577 15.5512 14.0046 15.8044C13.7514 16.0576 13.408 16.1998 13.05 16.1998H4.94998C4.59193 16.1998 4.24856 16.0576 3.99538 15.8044C3.74221 15.5512 3.59998 15.2078 3.59998 14.8498V4.0498C3.59998 3.69176 3.74221 3.34838 3.99538 3.09521C4.24856 2.84204 4.59193 2.6998 4.94998 2.6998H6.37648ZM7.64998 2.6998C7.53063 2.6998 7.41617 2.74722 7.33178 2.83161C7.24739 2.916 7.19998 3.03046 7.19998 3.1498C7.19998 3.26915 7.24739 3.38361 7.33178 3.468C7.41617 3.55239 7.53063 3.5998 7.64998 3.5998H10.35C10.4693 3.5998 10.5838 3.55239 10.6682 3.468C10.7526 3.38361 10.8 3.26915 10.8 3.1498C10.8 3.03046 10.7526 2.916 10.6682 2.83161C10.5838 2.74722 10.4693 2.6998 10.35 2.6998H7.64998ZM6.37648 3.5998H4.94998C4.83063 3.5998 4.71617 3.64722 4.63178 3.73161C4.54739 3.816 4.49998 3.93046 4.49998 4.0498V14.8498C4.49998 14.9692 4.54739 15.0836 4.63178 15.168C4.71617 15.2524 4.83063 15.2998 4.94998 15.2998H13.05C13.1693 15.2998 13.2838 15.2524 13.3682 15.168C13.4526 15.0836 13.5 14.9692 13.5 14.8498V4.0498C13.5 3.93046 13.4526 3.816 13.3682 3.73161C13.2838 3.64722 13.1693 3.5998 13.05 3.5998H11.6235C11.5304 3.86313 11.3579 4.09109 11.1298 4.25228C10.9017 4.41347 10.6293 4.49995 10.35 4.4998H7.64998C7.37068 4.49995 7.09822 4.41347 6.87013 4.25228C6.64205 4.09109 6.46957 3.86313 6.37648 3.5998V3.5998Z" fill="#333333"/>
</svg>
