<svg width="93" height="95" viewBox="0 0 93 95" fill="none" xmlns="http://www.w3.org/2000/svg">
<g opacity="0.5" clip-path="url(#clip0_517_1299)">
<path d="M72.9874 87.7605L66.498 48.5686L79.1477 41.2465C81.8542 39.6996 83.8228 37.2807 84.5406 34.6017C85.0774 32.5982 84.8715 30.6704 83.9194 29.017C81.6581 25.0903 75.8644 24.212 70.9991 27.0282L68.4928 28.4789C68.2336 28.6093 67.987 28.693 67.7216 28.8466L63.3344 31.3664L63.3684 31.4254L57.3236 34.9244L23.8727 11.2796C22.633 10.0486 20.7451 9.84231 19.269 10.7951L17.9931 11.6517C16.3339 12.7302 15.8634 14.9512 16.9827 16.7243L39.1599 45.4381L28.8101 51.4289C28.1614 51.8044 27.6584 52.194 27.2779 52.5914L25.6503 54.2027L15.892 47.2934C15.1693 46.5504 13.9929 46.385 13.0663 46.9607L12.5526 47.2974C11.5778 47.9601 11.281 49.2538 11.9798 50.3649L19.5624 60.1869L16.6815 63.0355C15.8195 63.9281 15.2875 64.984 15.1523 66.0464L13.9728 66.7291C13.3598 67.0642 12.9124 67.6185 12.7313 68.2941C12.5503 68.9697 12.6607 69.6734 12.99 70.2111C13.3238 70.8249 13.8765 71.2726 14.5506 71.4532C15.2247 71.6338 15.9272 71.5224 16.4937 71.1748L17.909 70.3556C17.9555 70.3681 17.9957 70.4038 18.0655 70.4225C18.9488 70.6592 19.924 70.6458 20.9151 70.387L25.6723 69.09L31.2787 80.4299C31.574 80.9085 32.0524 81.2614 32.5638 81.3984C33.0984 81.5417 33.7124 81.4815 34.2494 81.151L34.7864 80.8204C35.6773 80.2851 36.0574 79.2384 35.7413 78.2798L33.8605 66.8895L34.8283 66.6245C35.4441 66.4649 36.0616 66.2059 36.6513 65.8645L48.8293 58.8155L65.1838 91.687C65.6831 92.5199 66.4558 93.0765 67.339 93.3132C68.2456 93.5561 69.2457 93.4495 70.1071 92.9313L71.4465 92.1166C72.9565 91.2229 73.5954 89.3965 72.9874 87.7605ZM33.2424 78.9585L28.0361 68.4499L31.5028 67.5062L33.3729 78.8437L33.2424 78.9585ZM78.4241 32.1388C79.0532 33.2312 79.1998 34.5439 78.8252 35.9416C78.4819 37.2229 77.7309 38.4449 76.6795 39.4865C76.717 39.3468 76.7544 39.207 76.7919 39.0672C77.3225 37.087 77.0826 35.1002 76.1304 33.4468C75.1783 31.7934 73.599 30.6212 71.6 30.0855C71.4605 30.0482 71.2978 30.0046 71.1583 29.9672C74.1674 29.1505 77.149 29.9245 78.4241 32.1388ZM81.8259 30.2288C82.4549 31.3212 82.5845 32.6044 82.2162 33.9788C82.0289 34.6777 81.6727 35.3563 81.2762 35.9991C81.6344 34.1975 81.391 32.4094 80.5239 30.9037C79.6506 29.4212 78.285 28.3812 76.6488 27.793C78.8861 27.7183 80.8567 28.5459 81.8259 30.2288ZM18.951 15.3291C18.5815 14.7557 18.7223 14.0444 19.295 13.6735L20.5941 12.8231C20.8952 12.6291 21.2349 12.5703 21.5603 12.6575C21.7927 12.7198 21.9832 12.8457 22.1612 13.0183L54.9942 36.2727L41.2534 44.2263L18.951 15.3291ZM14.0903 49.1826L14.2735 49.0569C14.2735 49.0569 14.2905 49.0865 14.3307 49.1222L23.945 55.9181L22.8284 57.0171L21.308 58.5073L14.0903 49.1826ZM15.1505 68.8424L15.2032 68.8316L15.4981 68.6609L23.5275 64.1707L23.549 64.2763L15.1686 69.1469L15.1505 68.8424ZM35.4379 63.7916C35.0251 64.0305 34.631 64.1996 34.2029 64.3096L26.3079 66.4388L24.5893 66.9021L23.3578 67.2213L24.7731 66.4021C25.3629 66.0607 25.7871 65.5003 25.9619 64.848C26.1367 64.1957 26.0558 63.4749 25.7095 62.9077C25.3694 62.3172 24.8105 61.8928 24.1596 61.7184C23.4856 61.5378 22.8125 61.6321 22.1996 61.9672L19.8639 63.3389L21.052 62.1591L23.8319 59.4083L29.0113 54.3043C29.2551 54.045 29.5687 53.8045 30.011 53.5484L40.6557 47.387L59.4681 36.4977L65.3359 33.1012C66.931 32.3551 68.6291 32.061 70.19 32.2795C71.9197 32.5183 73.3058 33.3891 74.0539 34.6881C74.683 35.7805 74.8295 37.0932 74.455 38.491C73.9244 40.4711 72.3738 42.3528 70.3035 43.5708L70.3205 43.6004L35.4379 63.7916ZM70.2036 90.0608L68.8642 90.8754C68.304 91.1997 67.5771 91.0299 67.2819 90.5513L50.8996 57.5975L64.257 49.8657L70.6083 88.2716L70.6853 88.5419C70.9324 89.1075 70.7111 89.7473 70.2036 90.0608Z" fill="#333333" stroke="#333333" stroke-width="0.96"/>
</g>
<defs>
<clipPath id="clip0_517_1299">
<rect width="74.383" height="77.925" fill="white" transform="translate(20.1685) rotate(15)"/>
</clipPath>
</defs>
</svg>
