<svg width="136" height="134" viewBox="0 0 136 134" fill="none" xmlns="http://www.w3.org/2000/svg">
<path fill-rule="evenodd" clip-rule="evenodd" d="M1.91368 81.2794C1.91493 80.995 2.09417 80.8739 2.31151 81.0099C2.52886 81.146 2.60208 81.4251 2.47385 81.63C2.34562 81.8349 2.16676 81.9562 2.07601 81.8994C1.98526 81.8426 1.91242 81.5637 1.91368 81.2794ZM2.70102 78.1779C2.91921 77.7628 3.43174 77.379 3.84042 77.3248C4.4086 77.2491 4.51221 77.4539 4.28069 78.195C4.10928 78.7446 3.70415 79.166 3.34533 79.168C2.38283 79.1737 2.26939 78.9995 2.70102 78.1779ZM6.85273 73.6479C7.18937 73.7087 7.50326 73.9238 7.54984 74.1251C7.59642 74.3264 7.32107 74.2764 6.93747 74.014C6.51359 73.7238 6.48034 73.5802 6.85273 73.6479ZM8.25749 71.4216C7.46887 70.5807 7.84858 69.4409 8.73291 69.9944C9.60529 70.5404 9.98145 70.1138 9.61138 68.9977C9.41373 68.4017 9.55636 68.0741 10.1656 67.726C10.774 67.3784 10.8617 67.1793 10.5043 66.9556C10.2392 66.7897 10.2096 65.9359 10.4384 65.0588C10.7811 63.7455 10.974 63.4873 11.531 63.5963C12.0301 63.6941 12.3544 63.3527 12.7708 62.2888C13.0991 61.4512 13.4231 61.0266 13.5452 61.2741C13.6609 61.5078 14.2248 61.658 14.7989 61.6077C16.4465 61.4632 16.4618 61.6821 14.9646 64.0003C13.8794 65.6811 13.4655 66.0659 13.1684 65.672C12.9468 65.3783 12.6306 65.4018 12.4269 65.7274C12.2315 66.0396 12.2098 66.462 12.3788 66.6662C12.5475 66.8709 12.0287 68.3151 11.2249 69.8759C9.69573 72.8465 9.62705 72.8823 8.25749 71.4216ZM14.4444 59.7585C14.2951 59.1119 15.1058 58.9484 15.9236 59.4603C16.5663 59.8625 16.5591 59.9871 15.8798 60.2105C15.0001 60.4998 14.5857 60.369 14.4444 59.7585ZM16.3236 57.6877C16.2412 57.1442 16.5513 56.0426 17.0128 55.2396C17.474 54.437 17.8224 53.6545 17.7865 53.5009C17.7509 53.3469 18.1757 52.8875 18.7306 52.48C19.9335 51.5961 22.703 47.592 22.1139 47.5883C21.8878 47.5867 21.9098 47.2542 22.1632 46.8493C22.4164 46.4447 22.8204 46.1589 23.0605 46.2137C23.3361 46.2774 23.7051 45.6638 24.0616 44.5478C24.5096 43.1443 24.9279 42.5673 26.0978 41.7411C26.9079 41.1693 27.823 40.2976 28.1321 39.8037C28.441 39.3101 29.0062 38.9676 29.388 39.0427C30.1564 39.1934 31.1844 37.9056 30.5917 37.5347C29.5841 36.9041 32.9692 33.7709 34.9415 33.5086C35.8743 33.3843 36.5127 32.7014 35.7009 32.6956C35.3644 32.6934 35.4903 32.4674 36.0634 32.0458C37.3587 31.0923 39.8347 29.62 40.2287 29.5685C40.4175 29.5441 41.3131 29.0216 42.2189 28.4081C43.8087 27.3304 48.4842 26.06 48.9383 26.5816C49.0605 26.7219 50.0073 26.6732 51.0427 26.473C52.078 26.2728 53.064 26.1963 53.234 26.3026C53.4043 26.4092 53.8843 26.0699 54.3006 25.5492C54.8048 24.9181 55.3328 24.7172 55.8808 24.9477C56.7981 25.3331 59.2677 25.7843 61.3989 25.9558C62.1694 26.0176 63.4585 26.4807 64.2633 26.9844C65.1294 27.5265 65.8379 27.7231 65.999 27.4657C66.1484 27.2269 66.3057 27.1823 66.3488 27.3669C66.3912 27.5515 67.2369 27.7889 68.2274 27.8946C69.852 28.0674 70.0128 28.1576 69.8713 28.8146C69.7367 29.4391 69.8165 29.4662 70.4294 29.0058C71.0326 28.5528 71.1449 28.5884 71.1485 29.2345C71.1517 29.7658 71.2454 29.8571 71.4542 29.5326C71.6359 29.2497 72.1454 29.3524 72.7433 29.793C73.2869 30.1934 74 30.523 74.3279 30.5256C74.6583 30.5275 75.1212 31.2595 75.3651 32.1659L75.8061 33.8023L76.5322 32.9047C77.3247 31.9257 78.3321 32.2011 78.1114 33.3368C77.9894 33.9645 78.1315 34.043 79.3434 34.0192C80.4274 33.9978 80.7127 34.1307 80.7104 34.656C80.7081 35.1886 80.8053 35.2416 81.2027 34.9232C81.5957 34.6082 81.7665 34.7597 82.0325 35.6577C82.3047 36.5787 82.6062 36.8369 83.6534 37.0454C84.967 37.3076 86.3611 38.5903 87.7466 40.811C88.2365 41.5962 88.4704 41.7348 88.8209 41.4471C89.5607 40.8406 90.7408 41.9131 90.5178 42.9893L90.3113 43.9886L91.0313 43.3106C91.605 42.7702 92.0282 42.8065 93.1176 43.4883C93.8694 43.9588 94.6941 44.7088 94.9501 45.1552C95.2614 45.6974 95.5702 45.8907 95.8811 45.7379C96.1371 45.6119 96.6934 45.7263 97.1169 45.9913C97.7652 46.3971 97.7562 46.5169 97.06 46.7458C95.872 47.1366 96.1789 47.6984 97.4243 47.4135C98.2687 47.2203 98.552 47.3431 98.8987 48.0522C99.3825 49.0429 100.976 50.1679 101.519 49.9018C101.842 49.7422 103.825 50.9265 104.598 51.7413C104.771 51.9227 105.289 52.1276 105.75 52.1964C106.232 52.268 106.694 52.6435 106.839 53.0805C107.004 53.5777 107.252 53.76 107.559 53.609C107.856 53.4633 108.275 53.7046 108.701 54.265C109.071 54.7527 109.541 55.1133 109.747 55.066C109.952 55.0194 111.49 55.7571 113.165 56.7055C115.923 58.2668 116.205 58.5268 116.143 59.4564C116.021 61.2802 114.043 62.3774 111.472 62.0473C108.423 61.6553 99.5922 56.7987 98.7965 55.0757C98.3921 54.2004 97.8061 53.759 96.052 53.0091C93.5526 51.9404 91.689 50.5308 91.2912 49.4083C91.0923 48.8468 90.9138 48.7517 90.5773 49.0268C90.0071 49.4937 84.4327 46.0785 84.2126 45.1273C84.1285 44.7641 83.01 43.7619 81.7265 42.8995C80.4434 42.0373 79.2662 41.074 79.1106 40.7588C78.9549 40.4436 78.613 40.1845 78.3516 40.1827C78.0897 40.181 77.7804 39.7676 77.6639 39.2644C77.3788 38.0325 76.516 37.463 76.6711 38.6094C76.7617 39.2768 76.6536 39.3325 76.0824 38.9123C75.6682 38.6074 75.5816 38.2484 75.8708 38.0312C76.4751 37.5773 75.0524 36.5977 74.3152 36.9601C73.9502 37.1397 73.8028 37.0272 73.8047 36.5717C73.8068 36.0774 73.5217 35.9451 72.5561 35.994C71.023 36.0718 70.2418 35.6342 70.6754 34.9413C70.854 34.656 70.8085 34.1682 70.5743 33.8573C70.3187 33.5184 70.0156 33.5044 69.8165 33.8226C69.4663 34.3821 68.4656 34.0394 64.4668 31.9897C61.6845 30.5641 57.4378 29.4978 55.4041 29.7144C54.6102 29.7987 53.6411 29.6681 53.2508 29.4238C52.2952 28.8257 50.0254 28.9055 49.6209 29.5518C49.1283 30.3389 47.7403 30.9249 44.1469 31.8622C42.3531 32.33 40.7436 32.9402 40.5699 33.2177C40.396 33.4956 39.7866 33.7218 39.2157 33.7207C38.4416 33.7193 37.9251 34.1219 37.1844 35.3054C36.6383 36.1778 36.0308 36.7914 35.8347 36.6687C35.6387 36.546 34.9712 37.0028 34.3513 37.6844C33.7313 38.3653 32.8887 39.1211 32.4786 39.3637C31.9884 39.6536 31.8731 39.8919 32.1419 40.0602C32.3668 40.2009 32.3383 40.42 32.0791 40.5476C31.8195 40.675 31.5323 40.6274 31.4404 40.4413C31.3482 40.2555 30.9329 40.1045 30.5165 40.1062C29.9434 40.1084 29.8788 40.1851 30.2495 40.4233C30.6339 40.6701 30.3192 41.2809 28.782 43.2712C27.7058 44.6652 26.435 46.3775 25.9578 47.0768C25.481 47.7764 24.7887 48.4956 24.4201 48.676C23.9876 48.8869 23.8732 49.1528 24.0977 49.4245C24.5235 49.9399 23.47 51.741 22.9375 51.4077C22.6974 51.2574 22.04 52.1441 21.1655 53.798C18.7309 58.3996 16.6806 60.0471 16.3236 57.6877ZM19.0014 50.2403C19.1938 49.933 19.5192 49.7867 19.7246 49.9152C19.93 50.0438 19.9407 50.4004 19.7483 50.7078C19.556 51.0151 19.2305 51.1613 19.0252 51.0328C18.8198 50.9042 18.8091 50.5476 19.0014 50.2403ZM90.1303 67.7995C90.3226 67.4921 90.648 67.3459 90.8534 67.4744C91.0588 67.603 91.0695 67.9596 90.8772 68.2669C90.6848 68.5743 90.3594 68.7205 90.154 68.592C89.9486 68.4634 89.9379 68.1068 90.1303 67.7995ZM93.9102 67.573C94.1025 67.2657 94.5554 67.1956 94.9169 67.4177C95.4235 67.7285 95.5046 67.6762 95.2712 67.1905C95.0184 66.6642 95.1335 66.4796 95.9634 66.0762C97.1232 65.5127 97.6754 65.7091 97.1763 66.5066C96.9839 66.8139 96.9946 67.1706 97.2 67.2991C98.0336 67.8208 96.8074 68.5859 95.3635 68.4448C93.4745 68.26 93.4786 68.2626 93.9102 67.573ZM97.7846 66.3601C98.0821 64.8542 98.6147 64.5555 99.744 65.2623C100.298 65.6089 100.852 65.5802 101.273 65.1838C102.09 64.4147 103.998 64.7321 104.212 65.6725C104.296 66.0396 104.362 66.8045 104.359 67.373C104.354 68.3308 104.377 68.327 104.688 67.32C105.253 65.4906 105.336 65.4272 106.926 65.6148C107.773 65.7145 108.73 65.5531 109.051 65.2549C109.721 64.6339 111.178 65.3575 111.054 66.2492C111.008 66.5769 111.166 66.5007 111.403 66.0792C112.128 64.7966 112.319 64.6881 112.562 65.4215C112.738 65.9501 113.11 66.005 114.056 65.6421C115.454 65.1058 115.973 65.2416 115.769 66.0899C115.695 66.3996 115.851 66.1475 116.117 65.5298C116.535 64.556 116.724 64.4843 117.537 64.9931C118.148 65.3751 118.721 65.3718 119.179 64.9837C119.566 64.6555 120.051 64.4927 120.257 64.6217C120.971 65.0684 122.448 64.443 122.663 63.6028C122.82 62.9917 122.437 62.4145 121.25 61.4716C120.354 60.7605 119.676 59.9557 119.741 59.6835C119.807 59.4115 119.634 59.0476 119.358 58.8746C119.082 58.7016 118.772 58.2006 118.669 57.7606C118.283 56.1051 117.273 54.3269 116.983 54.7906C116.685 55.2667 115.818 52.5393 116.11 52.0465C116.203 51.8905 116.51 51.908 116.794 52.0852C117.077 52.2624 117.823 52.2049 118.453 51.9571C119.202 51.6625 119.569 51.7044 119.515 52.0777C119.456 52.4837 119.768 52.7149 120.596 52.8801C121.813 53.1227 122.471 53.8372 121.787 54.1735C121.567 54.2816 121.503 54.6057 121.645 54.8933C121.788 55.1811 122.162 55.2903 122.477 55.1351C122.885 54.935 123.049 55.0187 123.048 55.4257C123.046 55.7404 123.443 56.2471 123.93 56.5519C124.417 56.8564 124.91 57.5148 125.025 58.0149C125.141 58.5151 125.539 59.1212 125.909 59.3621C126.279 59.6024 126.754 60.2498 126.964 60.8002C127.175 61.3504 127.645 61.9872 128.009 62.2153C128.673 62.6307 128.801 64.1419 128.248 65.0263C128.011 65.4036 127.917 65.3463 127.777 64.7401C127.681 64.3236 127.719 63.7953 127.862 63.5662C128.005 63.3374 127.956 62.9491 127.753 62.7029C127.335 62.1981 126.54 63.1876 126.944 63.7089C127.534 64.4698 126.167 66.092 124.132 67.0467C121.377 68.3389 118.373 69.145 117.754 68.7579C117.486 68.5904 117.057 68.7884 116.801 69.1982C116.306 69.9898 115.19 69.6395 115.402 68.7589C115.56 68.1035 113.144 68.3986 112.712 69.0873C112.549 69.3492 112.099 69.3659 111.713 69.1245C111.328 68.8832 110.647 68.8056 110.201 68.9524C109.679 69.1241 109.048 68.9111 108.432 68.3559C107.723 67.7179 107.381 67.64 107.12 68.0572C106.926 68.3675 106.497 68.4522 106.167 68.2456C105.803 68.0174 105.517 68.1275 105.44 68.525C105.341 69.0324 105.046 68.9633 104.129 68.2175C103.124 67.4009 102.874 67.3688 102.476 68.0039C102.18 68.4766 101.759 68.5975 101.335 68.3319C100.965 68.1005 100.41 67.9598 100.101 68.02C99.7925 68.0797 99.0903 68.0058 98.5412 67.856C97.7335 67.6351 97.5889 67.3496 97.7846 66.3601ZM52.6603 28.0173C52.7885 27.8124 52.7153 27.5333 52.4979 27.3973C52.2806 27.2612 52.1013 27.3824 52.1001 27.6667C52.0988 27.9511 52.1717 28.23 52.2624 28.2868C52.3532 28.3436 52.532 28.2222 52.6603 28.0173ZM124.544 62.639C124.673 62.4342 124.609 62.1613 124.404 62.0328C124.199 61.9042 123.926 61.9667 123.797 62.1716C123.669 62.3765 123.732 62.6493 123.938 62.7778C124.143 62.9064 124.416 62.8439 124.544 62.639ZM119.794 54.451C119.915 54.258 119.845 53.9953 119.64 53.8667C119.435 53.7382 119.103 53.8945 118.903 54.2137C118.703 54.533 118.772 54.7961 119.057 54.798C119.342 54.7999 119.673 54.644 119.794 54.451ZM114.815 51.4923C114.476 51.1639 114.506 50.7682 114.899 50.3983C115.61 49.7293 114.909 48.1454 113.806 47.9293C112.953 47.7617 111.946 43.8735 112.614 43.3236C112.865 43.1165 112.774 42.6332 112.413 42.2496C111.936 41.7443 111.94 41.2573 112.427 40.4784C112.797 39.888 113.322 39.5167 113.593 39.6538C113.865 39.7908 114.353 40.0382 114.678 40.2034C115.197 40.4671 115.769 42.6122 115.455 43.1151C115.391 43.2172 115.057 43.0027 114.713 42.6387C114.282 42.1811 113.974 42.1597 113.717 42.5694C113.415 43.0518 113.567 43.2062 114.531 43.3984C116.108 43.7128 116.115 43.7208 115.559 44.6096C115.111 45.3256 115.148 45.3649 116.073 45.1533C116.751 44.9979 117.331 45.197 117.888 45.7748C118.89 46.8155 118.92 47.6141 117.993 48.5045C117.557 48.9235 117.424 49.437 117.647 49.8475C117.965 50.4324 117.848 50.6028 116.678 51.2595C115.856 51.7206 115.143 51.8094 114.815 51.4923ZM116.301 48.4069C116.493 48.0995 116.398 47.6903 116.09 47.4975C115.118 46.8893 114.974 47.8206 115.876 48.8778C115.917 48.9258 116.108 48.7142 116.301 48.4069Z" fill="#343366"/>
</svg>
