<svg width="15" height="15" viewBox="0 0 15 15" fill="none" xmlns="http://www.w3.org/2000/svg">
<rect width="15" height="15" fill="white"/>
<path fill-rule="evenodd" clip-rule="evenodd" d="M14.4 7.66451C14.4 7.15485 14.3543 6.66479 14.2693 6.19434H7.5V8.97459H11.3682C11.2016 9.87303 10.6952 10.6343 9.93395 11.1439V12.9473H12.2568C13.6159 11.696 14.4 9.85343 14.4 7.66451Z" fill="#4285F4"/>
<path fill-rule="evenodd" clip-rule="evenodd" d="M7.49992 14.6881C9.44054 14.6881 11.0675 14.0445 12.2567 12.9468L9.93387 11.1433C9.29026 11.5746 8.46696 11.8294 7.49992 11.8294C5.6279 11.8294 4.04338 10.5651 3.47818 8.86621H1.0769V10.7284C2.25957 13.0774 4.69026 14.6881 7.49992 14.6881Z" fill="#34A853"/>
<path fill-rule="evenodd" clip-rule="evenodd" d="M3.47827 8.86593C3.33452 8.43468 3.25284 7.97402 3.25284 7.5003C3.25284 7.02658 3.33452 6.56593 3.47827 6.13468V4.27246H1.07699C0.590199 5.24277 0.3125 6.3405 0.3125 7.5003C0.3125 8.6601 0.590199 9.75783 1.07699 10.7281L3.47827 8.86593Z" fill="#FBBC05"/>
<path fill-rule="evenodd" clip-rule="evenodd" d="M7.49992 3.17116C8.55517 3.17116 9.50262 3.53381 10.2475 4.24602L12.309 2.18452C11.0643 1.02472 9.43727 0.3125 7.49992 0.3125C4.69026 0.3125 2.25957 1.92315 1.0769 4.27216L3.47818 6.13437C4.04338 4.43551 5.6279 3.17116 7.49992 3.17116Z" fill="#EA4335"/>
</svg>
