<svg width="76" height="18" viewBox="0 0 76 18" fill="none" xmlns="http://www.w3.org/2000/svg">
<path d="M1 8.96875H58.5" stroke="#40C84F" stroke-linecap="round"/>
<g clip-path="url(#clip0_517_1323)">
<path d="M66.9219 16.4507L69.3414 10.5465L71.6881 10.6129C72.1885 10.6298 72.6616 10.4653 72.9858 10.1597C73.2282 9.93115 73.3627 9.65028 73.372 9.34397C73.3942 8.6165 72.6764 8.00767 71.7739 7.98212L71.3089 7.96896C71.2625 7.96491 71.2217 7.95554 71.1725 7.95415L70.3603 7.92842L70.3599 7.93936L69.2386 7.90762L66.6613 1.85379C66.5958 1.58095 66.3551 1.39348 66.073 1.39918L65.8263 1.40862C65.5086 1.41605 65.2569 1.67991 65.2603 2.01669L65.869 7.81223L63.949 7.75788C63.8286 7.75448 63.727 7.76529 63.6415 7.7875L63.2831 7.87042L62.5322 6.10281C62.4961 5.94029 62.3493 5.81843 62.1741 5.81894L62.0755 5.82163C61.8863 5.82996 61.7366 5.98174 61.7384 6.19256L61.9461 8.17473L61.3121 8.32102C61.1189 8.3703 60.9571 8.46973 60.849 8.60353L60.6302 8.59734C60.5182 8.59143 60.4102 8.62943 60.3285 8.7065C60.2468 8.78356 60.2025 8.88906 60.2021 8.99033C60.196 9.10238 60.2337 9.21021 60.3106 9.29176C60.3875 9.37332 60.4929 9.41736 60.5997 9.41765L60.8623 9.42508C60.8676 9.4307 60.87 9.43899 60.878 9.44742C60.9788 9.55429 61.1132 9.63474 61.2705 9.68299L62.0301 9.90705L61.8397 11.93C61.8397 12.0203 61.8753 12.1089 61.9336 12.1707C61.9946 12.2354 62.0836 12.279 62.1849 12.2791L62.2862 12.2793C62.4531 12.2813 62.5934 12.1703 62.631 12.0126L63.3349 10.2971L63.4895 10.3425C63.5872 10.3727 63.6934 10.3894 63.8028 10.3924L66.062 10.4564L65.5241 16.329C65.5221 16.4849 65.5807 16.6262 65.6815 16.7331C65.7849 16.8427 65.9306 16.9126 66.092 16.9144L66.3438 16.9161C66.6256 16.9213 66.867 16.7256 66.9219 16.4507ZM62.2322 11.8945L62.4072 10.019L62.9606 10.1825L62.2597 11.8898L62.2322 11.8945ZM72.3576 9.30705C72.3514 9.50943 72.2607 9.7012 72.0915 9.86065C71.9365 10.0068 71.7308 10.1105 71.4992 10.1641C71.5161 10.1482 71.533 10.1323 71.5499 10.1163C71.7895 9.89042 71.9244 9.59862 71.9337 9.29231C71.9431 8.986 71.8261 8.69255 71.5981 8.45069C71.5822 8.43381 71.5636 8.41413 71.5477 8.39725C72.0279 8.5395 72.3701 8.89681 72.3576 9.30705ZM72.9836 9.33298C72.9775 9.53536 72.8869 9.72167 72.7206 9.87846C72.6361 9.95818 72.5301 10.0209 72.4217 10.0753C72.6226 9.85926 72.7402 9.59434 72.7488 9.31538C72.7544 9.03908 72.6555 8.78172 72.4815 8.56329C72.7936 8.74183 72.9932 9.0212 72.9836 9.33298ZM65.647 1.99205C65.6449 1.8825 65.7241 1.79715 65.8337 1.79478L66.083 1.78815C66.1405 1.78704 66.1919 1.80766 66.229 1.84703C66.2556 1.87515 66.271 1.90843 66.2807 1.94703L68.8064 7.89538L66.2573 7.82323L65.647 1.99205ZM62.1266 6.20903L62.1622 6.2073C62.1622 6.2073 62.1621 6.21277 62.1646 6.22105L62.9053 7.961L62.6599 8.01702L62.3264 8.09243L62.1266 6.20903ZM60.6129 8.98554L60.621 8.9885L60.6757 8.99005L62.152 9.05374L62.146 9.06999L60.5897 9.02867L60.6129 8.98554ZM63.8119 10.0068C63.7353 10.0046 63.6672 9.99444 63.5994 9.97336L62.3407 9.59832L62.0667 9.51665L61.8714 9.45638L62.134 9.46381C62.2434 9.46691 62.3486 9.4261 62.4276 9.35169C62.5065 9.27728 62.5562 9.17193 62.5568 9.0652C62.5601 8.9558 62.5195 8.85064 62.4453 8.77189C62.3684 8.69034 62.2684 8.64645 62.1564 8.64054L61.7214 8.63096L61.9833 8.56995L62.5954 8.42851L63.7339 8.16786C63.7891 8.15299 63.8522 8.14657 63.9343 8.14889L65.909 8.20479L69.3989 8.30358L70.4875 8.3344C70.7684 8.36698 71.0253 8.47006 71.2202 8.6316C71.4365 8.81017 71.5525 9.04612 71.5452 9.28679C71.539 9.48917 71.4483 9.68094 71.2792 9.84039C71.0396 10.0663 70.6689 10.1926 70.2832 10.1845L70.283 10.1899L63.8119 10.0068ZM66.3474 16.5302L66.0956 16.5286C65.9916 16.5256 65.9066 16.4411 65.9066 16.3508L66.4477 10.4646L68.9257 10.5347L66.5536 16.3198L66.5413 16.3632C66.5274 16.4614 66.4432 16.5302 66.3474 16.5302Z" fill="#40C84F" stroke="#40C84F" stroke-width="0.2"/>
</g>
<defs>
<clipPath id="clip0_517_1323">
<rect width="11.9473" height="12.5163" fill="white" transform="translate(67.1067) rotate(46.6851)"/>
</clipPath>
</defs>
</svg>
