<svg width="55" height="55" viewBox="0 0 55 55" fill="none" xmlns="http://www.w3.org/2000/svg">
<path d="M27.5 3.4375C14.2119 3.4375 3.4375 14.2119 3.4375 27.5C3.4375 40.7881 14.2119 51.5625 27.5 51.5625C40.7881 51.5625 51.5625 40.7881 51.5625 27.5C51.5625 14.2119 40.7881 3.4375 27.5 3.4375ZM27.5 47.4805C16.4678 47.4805 7.51953 38.5322 7.51953 27.5C7.51953 16.4678 16.4678 7.51953 27.5 7.51953C38.5322 7.51953 47.4805 16.4678 47.4805 27.5C47.4805 38.5322 38.5322 47.4805 27.5 47.4805Z" fill="#333333"/>
<path d="M24.9219 18.0469C24.9219 18.7306 25.1935 19.3864 25.677 19.8699C26.1605 20.3534 26.8162 20.625 27.5 20.625C28.1838 20.625 28.8395 20.3534 29.323 19.8699C29.8065 19.3864 30.0781 18.7306 30.0781 18.0469C30.0781 17.3631 29.8065 16.7074 29.323 16.2239C28.8395 15.7404 28.1838 15.4688 27.5 15.4688C26.8162 15.4688 26.1605 15.7404 25.677 16.2239C25.1935 16.7074 24.9219 17.3631 24.9219 18.0469ZM28.7891 24.0625H26.2109C25.9746 24.0625 25.7812 24.2559 25.7812 24.4922V39.1016C25.7812 39.3379 25.9746 39.5312 26.2109 39.5312H28.7891C29.0254 39.5312 29.2188 39.3379 29.2188 39.1016V24.4922C29.2188 24.2559 29.0254 24.0625 28.7891 24.0625Z" fill="#333333"/>
</svg>
