<svg width="18" height="21" viewBox="0 0 18 21" fill="none" xmlns="http://www.w3.org/2000/svg">
<path d="M14.5 7.33335H16.3333C16.5764 7.33335 16.8096 7.42993 16.9815 7.60184C17.1534 7.77375 17.25 8.00691 17.25 8.25002V19.25C17.25 19.4931 17.1534 19.7263 16.9815 19.8982C16.8096 20.0701 16.5764 20.1667 16.3333 20.1667H1.66667C1.42355 20.1667 1.19039 20.0701 1.01849 19.8982C0.846577 19.7263 0.75 19.4931 0.75 19.25V8.25002C0.75 8.00691 0.846577 7.77375 1.01849 7.60184C1.19039 7.42993 1.42355 7.33335 1.66667 7.33335H3.5V6.41669C3.5 4.958 4.07946 3.55905 5.11091 2.5276C6.14236 1.49615 7.54131 0.916687 9 0.916687C10.4587 0.916687 11.8576 1.49615 12.8891 2.5276C13.9205 3.55905 14.5 4.958 14.5 6.41669V7.33335ZM2.58333 9.16669V18.3334H15.4167V9.16669H2.58333ZM8.08333 12.8334H9.91667V14.6667H8.08333V12.8334ZM4.41667 12.8334H6.25V14.6667H4.41667V12.8334ZM11.75 12.8334H13.5833V14.6667H11.75V12.8334ZM12.6667 7.33335V6.41669C12.6667 5.44423 12.2804 4.5116 11.5927 3.82396C10.9051 3.13633 9.97246 2.75002 9 2.75002C8.02754 2.75002 7.09491 3.13633 6.40728 3.82396C5.71964 4.5116 5.33333 5.44423 5.33333 6.41669V7.33335H12.6667Z" fill="#333333"/>
</svg>
