<svg width="18" height="18" viewBox="0 0 18 18" fill="none" xmlns="http://www.w3.org/2000/svg">
<path d="M8.1914 11.1446C8.97629 10.7018 9.5924 10.0114 9.94346 9.18141C10.2945 8.3514 10.3608 7.42848 10.1318 6.55684C9.90292 5.6852 9.39172 4.91394 8.67812 4.36355C7.96451 3.81316 7.08869 3.51465 6.18749 3.51465C5.28629 3.51465 4.41047 3.81316 3.69686 4.36355C2.98326 4.91394 2.47206 5.6852 2.24313 6.55684C2.01421 7.42848 2.08045 8.3514 2.43152 9.18141C2.78258 10.0114 3.39869 10.7018 4.18358 11.1446C2.80694 11.5786 1.61118 12.4532 0.780458 13.6337C0.747944 13.6788 0.72469 13.73 0.712036 13.7842C0.699383 13.8384 0.697579 13.8946 0.706729 13.9495C0.715879 14.0044 0.735802 14.0569 0.76535 14.1041C0.794899 14.1512 0.833488 14.1921 0.878895 14.2243C0.951968 14.2728 1.0373 14.2996 1.12499 14.3016C1.19217 14.3014 1.25835 14.2853 1.31819 14.2548C1.37804 14.2242 1.42987 14.1801 1.46952 14.1258C2.00089 13.3682 2.70684 12.7496 3.5277 12.3222C4.34857 11.8949 5.26024 11.6715 6.18566 11.6708C7.11109 11.6701 8.02309 11.8922 8.84459 12.3183C9.66609 12.7444 10.373 13.3619 10.9055 14.1188C10.9371 14.1648 10.9776 14.204 11.0245 14.2342C11.0714 14.2644 11.1238 14.285 11.1788 14.2948C11.2337 14.3047 11.29 14.3035 11.3445 14.2914C11.399 14.2792 11.4505 14.2564 11.4961 14.2243C11.5863 14.1581 11.647 14.0593 11.6654 13.949C11.6838 13.8387 11.6584 13.7255 11.5945 13.6337C10.7608 12.4562 9.56614 11.5824 8.1914 11.1446V11.1446ZM2.95311 7.59382C2.95311 6.95412 3.14281 6.32879 3.4982 5.7969C3.8536 5.265 4.35874 4.85045 4.94975 4.60564C5.54075 4.36084 6.19108 4.29679 6.81848 4.42159C7.44589 4.54639 8.0222 4.85443 8.47454 5.30677C8.92687 5.7591 9.23492 6.33541 9.35972 6.96282C9.48452 7.59023 9.42047 8.24055 9.17566 8.83156C8.93086 9.42256 8.5163 9.9277 7.98441 10.2831C7.45252 10.6385 6.82719 10.8282 6.18749 10.8282C5.32968 10.8282 4.507 10.4874 3.90044 9.88087C3.29388 9.2743 2.95311 8.45163 2.95311 7.59382V7.59382ZM17.2266 14.2243C17.1535 14.2728 17.0682 14.2996 16.9805 14.3016C16.9124 14.3017 16.8454 14.2851 16.7854 14.2532C16.7253 14.2214 16.674 14.1752 16.6359 14.1188C16.1035 13.3624 15.3968 12.7452 14.5757 12.3193C13.7545 11.8935 12.843 11.6714 11.918 11.6719C11.8061 11.6719 11.6988 11.6275 11.6196 11.5484C11.5405 11.4693 11.4961 11.362 11.4961 11.2501C11.4961 11.1382 11.5405 11.0309 11.6196 10.9518C11.6988 10.8726 11.8061 10.8282 11.918 10.8282C12.7758 10.8282 13.5984 10.4874 14.205 9.88087C14.8116 9.2743 15.1523 8.45163 15.1523 7.59382C15.1523 6.73601 14.8116 5.91333 14.205 5.30677C13.5984 4.70021 12.7758 4.35944 11.918 4.35944C11.621 4.36069 11.3255 4.40088 11.0391 4.47897C10.9841 4.50054 10.9252 4.51034 10.8662 4.50772C10.8072 4.5051 10.7495 4.49013 10.6966 4.46377C10.6438 4.43741 10.5971 4.40026 10.5595 4.35471C10.5219 4.30916 10.4943 4.25624 10.4785 4.19935C10.4627 4.14247 10.459 4.0829 10.4676 4.02449C10.4763 3.96608 10.4971 3.91013 10.5287 3.86027C10.5603 3.81042 10.6021 3.76775 10.6512 3.73504C10.7004 3.70233 10.7558 3.6803 10.8141 3.67038C11.1727 3.56635 11.5445 3.51426 11.918 3.51569C12.8194 3.51455 13.6959 3.81212 14.4103 4.36189C15.1247 4.91167 15.6368 5.68266 15.8666 6.55435C16.0963 7.42604 16.0308 8.34929 15.6802 9.17979C15.3297 10.0103 14.7138 10.7012 13.9289 11.1446C15.3025 11.5809 16.4953 12.4552 17.325 13.6337C17.3888 13.7255 17.4143 13.8387 17.3959 13.949C17.3775 14.0593 17.3167 14.1581 17.2266 14.2243V14.2243Z" fill="#333333"/>
</svg>
