<svg width="22" height="22" viewBox="0 0 22 22" fill="none" xmlns="http://www.w3.org/2000/svg">
<path d="M16.5 7.33366H18.3333C18.5764 7.33366 18.8096 7.43024 18.9815 7.60215C19.1534 7.77405 19.25 8.00721 19.25 8.25033V19.2503C19.25 19.4934 19.1534 19.7266 18.9815 19.8985C18.8096 20.0704 18.5764 20.167 18.3333 20.167H3.66667C3.42355 20.167 3.19039 20.0704 3.01849 19.8985C2.84658 19.7266 2.75 19.4934 2.75 19.2503V8.25033C2.75 8.00721 2.84658 7.77405 3.01849 7.60215C3.19039 7.43024 3.42355 7.33366 3.66667 7.33366H5.5V6.41699C5.5 4.9583 6.07946 3.55936 7.11091 2.5279C8.14236 1.49645 9.54131 0.916992 11 0.916992C12.4587 0.916992 13.8576 1.49645 14.8891 2.5279C15.9205 3.55936 16.5 4.9583 16.5 6.41699V7.33366ZM4.58333 9.16699V18.3337H17.4167V9.16699H4.58333ZM10.0833 12.8337H11.9167V14.667H10.0833V12.8337ZM6.41667 12.8337H8.25V14.667H6.41667V12.8337ZM13.75 12.8337H15.5833V14.667H13.75V12.8337ZM14.6667 7.33366V6.41699C14.6667 5.44453 14.2804 4.5119 13.5927 3.82427C12.9051 3.13663 11.9725 2.75033 11 2.75033C10.0275 2.75033 9.09491 3.13663 8.40728 3.82427C7.71964 4.5119 7.33333 5.44453 7.33333 6.41699V7.33366H14.6667Z" fill="#333333"/>
</svg>
