<svg width="1261" height="193" viewBox="0 0 1261 193" fill="none" xmlns="http://www.w3.org/2000/svg">
<path d="M1048.68 182.098C1048.68 180.661 1048.66 179.445 1048.71 178.233C1048.77 176.176 1048.93 174.148 1049.86 172.245C1050.81 170.316 1052.36 169.267 1054.46 169.315C1055.75 169.346 1057.03 169.728 1058.31 169.999C1058.8 170.107 1059.28 170.357 1059.99 170.626C1059.48 169.616 1059.06 168.829 1058.68 168.025C1057.74 166.066 1056.72 164.143 1055.92 162.131C1054.8 159.38 1055.78 157.29 1058.59 156.267C1059.69 155.866 1060.9 155.731 1062.06 155.487C1062.41 155.415 1062.77 155.395 1063.19 155.342C1061.69 153.935 1060.23 152.619 1058.84 151.255C1055.59 148.072 1057.49 145.095 1060.41 143.889C1061.19 143.566 1062.07 143.429 1062.92 143.286C1063.48 143.209 1064.03 143.441 1064.11 144.069C1064.18 144.637 1063.73 144.924 1063.21 145.078C1062.71 145.237 1062.18 145.362 1061.7 145.574C1061.14 145.822 1060.58 146.079 1060.08 146.433C1058.67 147.429 1058.46 148.526 1059.54 149.884C1060.29 150.844 1061.19 151.697 1062.07 152.549C1062.89 153.342 1063.75 154.1 1064.61 154.859C1065.04 155.255 1065.47 155.668 1065.33 156.311C1065.16 157.05 1064.51 157.172 1063.91 157.288C1063.14 157.441 1062.36 157.477 1061.6 157.672C1060.64 157.906 1059.69 158.162 1058.79 158.538C1057.58 159.052 1057.23 159.733 1057.58 161.006C1057.91 162.223 1058.32 163.449 1058.85 164.598C1059.99 167.055 1061.21 169.462 1062.44 171.873C1062.73 172.445 1062.86 172.961 1062.43 173.461C1062.02 173.941 1061.48 173.858 1060.95 173.645C1060 173.265 1059.06 172.839 1058.09 172.508C1057.25 172.222 1056.37 171.943 1055.49 171.816C1053.14 171.472 1051.86 172.3 1051.04 174.52C1050.42 176.187 1050.15 177.922 1050.09 179.688C1050.05 180.96 1050.09 182.233 1050.09 183.499C1050.1 184.17 1050.1 184.863 1049.35 185.164C1048.63 185.44 1048.09 185.01 1047.59 184.564C1047.38 184.371 1047.2 184.148 1047.01 183.933C1046.64 183.495 1046.24 183.074 1045.92 182.602C1043.5 179.107 1040.12 178.623 1036.33 179.587C1035.63 179.767 1034.98 180.167 1034.32 180.487C1033.99 180.643 1033.7 180.903 1033.36 181.016C1033.12 181.104 1032.72 181.126 1032.58 180.984C1032.42 180.831 1032.4 180.442 1032.42 180.203C1032.47 179.684 1032.84 179.161 1033.23 178.861C1034 178.269 1034.84 177.705 1035.74 177.366C1037.72 176.608 1039.81 176.493 1041.93 176.749C1043.73 176.968 1045.16 177.9 1046.34 179.213C1047.1 180.081 1047.79 181 1048.68 182.098Z" fill="#343366"/>
<rect width="1261" height="166" rx="11" fill="#C9DBF2"/>
<path d="M43.3427 140.786C42.7767 141.113 42.2051 141.431 41.6282 141.741C41.9959 141.179 42.6249 140.803 43.3427 140.786Z" fill="#343366"/>
<path d="M57.8901 129.249C56.9687 130.231 56.0162 131.183 55.0343 132.104C54.3758 131.748 53.9285 131.051 53.9285 130.25C53.9285 129.086 54.8719 128.143 56.0356 128.143C56.837 128.143 57.5338 128.59 57.8901 129.249Z" fill="#343366"/>
<path d="M67.5264 115.843C67.2169 116.419 66.8987 116.991 66.5719 117.557C66.5887 116.839 66.9643 116.21 67.5264 115.843Z" fill="#343366"/>
<path d="M66.5719 54.443C66.8987 55.009 67.2169 55.5805 67.5264 56.1574C66.9643 55.7897 66.5887 55.1607 66.5719 54.443Z" fill="#343366"/>
<path d="M55.0343 39.8955C56.0162 40.817 56.9687 41.7694 57.8901 42.7513C57.5338 43.4098 56.837 43.8571 56.0356 43.8571C54.8719 43.8571 53.9285 42.9137 53.9285 41.75C53.9285 40.9487 54.3758 40.2518 55.0343 39.8955Z" fill="#343366"/>
<path d="M41.6282 30.2593C42.2051 30.5688 42.7767 30.887 43.3427 31.2137C42.6249 31.1969 41.9959 30.8213 41.6282 30.2593Z" fill="#343366"/>
<path d="M68.6785 69.1429C67.5148 69.1429 66.5714 68.1995 66.5714 67.0357C66.5714 65.872 67.5148 64.9286 68.6785 64.9286C69.8422 64.9286 70.7856 65.872 70.7856 67.0357C70.7856 68.1995 69.8422 69.1429 68.6785 69.1429Z" fill="#343366"/>
<path d="M68.6785 81.7857C67.5148 81.7857 66.5714 80.8423 66.5714 79.6786C66.5714 78.5148 67.5148 77.5714 68.6785 77.5714C69.8422 77.5714 70.7856 78.5148 70.7856 79.6786C70.7856 80.8423 69.8422 81.7857 68.6785 81.7857Z" fill="#343366"/>
<path d="M68.6785 94.4286C67.5148 94.4286 66.5714 93.4852 66.5714 92.3214C66.5714 91.1577 67.5148 90.2143 68.6785 90.2143C69.8422 90.2143 70.7856 91.1577 70.7856 92.3214C70.7856 93.4852 69.8422 94.4286 68.6785 94.4286Z" fill="#343366"/>
<path d="M68.6785 107.071C67.5148 107.071 66.5714 106.128 66.5714 104.964C66.5714 103.801 67.5148 102.857 68.6785 102.857C69.8422 102.857 70.7856 103.801 70.7856 104.964C70.7856 106.128 69.8422 107.071 68.6785 107.071Z" fill="#343366"/>
<path d="M56.0356 56.5C54.8719 56.5 53.9285 55.5566 53.9285 54.3929C53.9285 53.2291 54.8719 52.2857 56.0356 52.2857C57.1994 52.2857 58.1428 53.2291 58.1428 54.3929C58.1428 55.5566 57.1994 56.5 56.0356 56.5Z" fill="#343366"/>
<path d="M56.0356 69.1429C54.8719 69.1429 53.9285 68.1995 53.9285 67.0357C53.9285 65.872 54.8719 64.9286 56.0356 64.9286C57.1994 64.9286 58.1428 65.872 58.1428 67.0357C58.1428 68.1995 57.1994 69.1429 56.0356 69.1429Z" fill="#343366"/>
<path d="M56.0356 81.7857C54.8719 81.7857 53.9285 80.8423 53.9285 79.6786C53.9285 78.5148 54.8719 77.5714 56.0356 77.5714C57.1994 77.5714 58.1428 78.5148 58.1428 79.6786C58.1428 80.8423 57.1994 81.7857 56.0356 81.7857Z" fill="#343366"/>
<path d="M56.0356 94.4286C54.8719 94.4286 53.9285 93.4852 53.9285 92.3214C53.9285 91.1577 54.8719 90.2143 56.0356 90.2143C57.1994 90.2143 58.1428 91.1577 58.1428 92.3214C58.1428 93.4852 57.1994 94.4286 56.0356 94.4286Z" fill="#343366"/>
<path d="M56.0356 107.071C54.8719 107.071 53.9285 106.128 53.9285 104.964C53.9285 103.801 54.8719 102.857 56.0356 102.857C57.1994 102.857 58.1428 103.801 58.1428 104.964C58.1428 106.128 57.1994 107.071 56.0356 107.071Z" fill="#343366"/>
<path d="M56.0356 119.714C54.8719 119.714 53.9285 118.771 53.9285 117.607C53.9285 116.443 54.8719 115.5 56.0356 115.5C57.1994 115.5 58.1428 116.443 58.1428 117.607C58.1428 118.771 57.1994 119.714 56.0356 119.714Z" fill="#343366"/>
<path d="M43.3928 43.8571C42.229 43.8571 41.2856 42.9137 41.2856 41.75C41.2856 40.5863 42.229 39.6429 43.3928 39.6429C44.5565 39.6429 45.4999 40.5863 45.4999 41.75C45.4999 42.9137 44.5565 43.8571 43.3928 43.8571Z" fill="#343366"/>
<path d="M43.3928 56.5C42.229 56.5 41.2856 55.5566 41.2856 54.3929C41.2856 53.2291 42.229 52.2857 43.3928 52.2857C44.5565 52.2857 45.4999 53.2291 45.4999 54.3929C45.4999 55.5566 44.5565 56.5 43.3928 56.5Z" fill="#343366"/>
<path d="M43.3928 69.1429C42.229 69.1429 41.2856 68.1995 41.2856 67.0357C41.2856 65.872 42.229 64.9286 43.3928 64.9286C44.5565 64.9286 45.4999 65.872 45.4999 67.0357C45.4999 68.1995 44.5565 69.1429 43.3928 69.1429Z" fill="#343366"/>
<path d="M43.3928 81.7857C42.229 81.7857 41.2856 80.8423 41.2856 79.6786C41.2856 78.5148 42.229 77.5714 43.3928 77.5714C44.5565 77.5714 45.4999 78.5148 45.4999 79.6786C45.4999 80.8423 44.5565 81.7857 43.3928 81.7857Z" fill="#343366"/>
<path d="M43.3928 94.4286C42.229 94.4286 41.2856 93.4852 41.2856 92.3214C41.2856 91.1577 42.229 90.2143 43.3928 90.2143C44.5565 90.2143 45.4999 91.1577 45.4999 92.3214C45.4999 93.4852 44.5565 94.4286 43.3928 94.4286Z" fill="#343366"/>
<path d="M43.3928 107.071C42.229 107.071 41.2856 106.128 41.2856 104.964C41.2856 103.801 42.229 102.857 43.3928 102.857C44.5565 102.857 45.4999 103.801 45.4999 104.964C45.4999 106.128 44.5565 107.071 43.3928 107.071Z" fill="#343366"/>
<path d="M43.3928 119.714C42.229 119.714 41.2856 118.771 41.2856 117.607C41.2856 116.443 42.229 115.5 43.3928 115.5C44.5565 115.5 45.4999 116.443 45.4999 117.607C45.4999 118.771 44.5565 119.714 43.3928 119.714Z" fill="#343366"/>
<path d="M43.3928 132.357C42.229 132.357 41.2856 131.414 41.2856 130.25C41.2856 129.086 42.229 128.143 43.3928 128.143C44.5565 128.143 45.4999 129.086 45.4999 130.25C45.4999 131.414 44.5565 132.357 43.3928 132.357Z" fill="#343366"/>
<path d="M30.7499 31.2143C29.5862 31.2143 28.6428 30.2709 28.6428 29.1071C28.6428 27.9434 29.5862 27 30.7499 27C31.9137 27 32.8571 27.9434 32.8571 29.1071C32.8571 30.2709 31.9137 31.2143 30.7499 31.2143Z" fill="#343366"/>
<path d="M30.7499 43.8571C29.5862 43.8571 28.6428 42.9137 28.6428 41.75C28.6428 40.5863 29.5862 39.6429 30.7499 39.6429C31.9137 39.6429 32.8571 40.5863 32.8571 41.75C32.8571 42.9137 31.9137 43.8571 30.7499 43.8571Z" fill="#343366"/>
<path d="M30.7499 56.5C29.5862 56.5 28.6428 55.5566 28.6428 54.3929C28.6428 53.2291 29.5862 52.2857 30.7499 52.2857C31.9137 52.2857 32.8571 53.2291 32.8571 54.3929C32.8571 55.5566 31.9137 56.5 30.7499 56.5Z" fill="#343366"/>
<path d="M30.7499 69.1429C29.5862 69.1429 28.6428 68.1995 28.6428 67.0357C28.6428 65.872 29.5862 64.9286 30.7499 64.9286C31.9137 64.9286 32.8571 65.872 32.8571 67.0357C32.8571 68.1995 31.9137 69.1429 30.7499 69.1429Z" fill="#343366"/>
<path d="M30.7499 81.7857C29.5862 81.7857 28.6428 80.8423 28.6428 79.6786C28.6428 78.5148 29.5862 77.5714 30.7499 77.5714C31.9137 77.5714 32.8571 78.5148 32.8571 79.6786C32.8571 80.8423 31.9137 81.7857 30.7499 81.7857Z" fill="#343366"/>
<path d="M30.7499 94.4286C29.5862 94.4286 28.6428 93.4852 28.6428 92.3214C28.6428 91.1577 29.5862 90.2143 30.7499 90.2143C31.9137 90.2143 32.8571 91.1577 32.8571 92.3214C32.8571 93.4852 31.9137 94.4286 30.7499 94.4286Z" fill="#343366"/>
<path d="M30.7499 107.071C29.5862 107.071 28.6428 106.128 28.6428 104.964C28.6428 103.801 29.5862 102.857 30.7499 102.857C31.9137 102.857 32.8571 103.801 32.8571 104.964C32.8571 106.128 31.9137 107.071 30.7499 107.071Z" fill="#343366"/>
<path d="M30.7499 119.714C29.5862 119.714 28.6428 118.771 28.6428 117.607C28.6428 116.443 29.5862 115.5 30.7499 115.5C31.9137 115.5 32.8571 116.443 32.8571 117.607C32.8571 118.771 31.9137 119.714 30.7499 119.714Z" fill="#343366"/>
<path d="M30.7499 132.357C29.5862 132.357 28.6428 131.414 28.6428 130.25C28.6428 129.086 29.5862 128.143 30.7499 128.143C31.9137 128.143 32.8571 129.086 32.8571 130.25C32.8571 131.414 31.9137 132.357 30.7499 132.357Z" fill="#343366"/>
<path d="M30.7499 145C29.5862 145 28.6428 144.057 28.6428 142.893C28.6428 141.729 29.5862 140.786 30.7499 140.786C31.9137 140.786 32.8571 141.729 32.8571 142.893C32.8571 144.057 31.9137 145 30.7499 145Z" fill="#343366"/>
<path d="M18.1071 31.2143C16.9433 31.2143 15.9999 30.2709 15.9999 29.1071C15.9999 27.9434 16.9433 27 18.1071 27C19.2708 27 20.2142 27.9434 20.2142 29.1071C20.2142 30.2709 19.2708 31.2143 18.1071 31.2143Z" fill="#343366"/>
<path d="M18.1071 43.8571C16.9433 43.8571 15.9999 42.9137 15.9999 41.75C15.9999 40.5863 16.9433 39.6429 18.1071 39.6429C19.2708 39.6429 20.2142 40.5863 20.2142 41.75C20.2142 42.9137 19.2708 43.8571 18.1071 43.8571Z" fill="#343366"/>
<path d="M18.1071 56.5C16.9433 56.5 15.9999 55.5566 15.9999 54.3929C15.9999 53.2291 16.9433 52.2857 18.1071 52.2857C19.2708 52.2857 20.2142 53.2291 20.2142 54.3929C20.2142 55.5566 19.2708 56.5 18.1071 56.5Z" fill="#343366"/>
<path d="M18.1071 69.1429C16.9433 69.1429 15.9999 68.1995 15.9999 67.0357C15.9999 65.872 16.9433 64.9286 18.1071 64.9286C19.2708 64.9286 20.2142 65.872 20.2142 67.0357C20.2142 68.1995 19.2708 69.1429 18.1071 69.1429Z" fill="#343366"/>
<path d="M18.1071 81.7857C16.9433 81.7857 15.9999 80.8423 15.9999 79.6786C15.9999 78.5148 16.9433 77.5714 18.1071 77.5714C19.2708 77.5714 20.2142 78.5148 20.2142 79.6786C20.2142 80.8423 19.2708 81.7857 18.1071 81.7857Z" fill="#343366"/>
<path d="M18.1071 94.4286C16.9433 94.4286 15.9999 93.4852 15.9999 92.3214C15.9999 91.1577 16.9433 90.2143 18.1071 90.2143C19.2708 90.2143 20.2142 91.1577 20.2142 92.3214C20.2142 93.4852 19.2708 94.4286 18.1071 94.4286Z" fill="#343366"/>
<path d="M18.1071 107.071C16.9433 107.071 15.9999 106.128 15.9999 104.964C15.9999 103.801 16.9433 102.857 18.1071 102.857C19.2708 102.857 20.2142 103.801 20.2142 104.964C20.2142 106.128 19.2708 107.071 18.1071 107.071Z" fill="#343366"/>
<path d="M18.1071 119.714C16.9433 119.714 15.9999 118.771 15.9999 117.607C15.9999 116.443 16.9433 115.5 18.1071 115.5C19.2708 115.5 20.2142 116.443 20.2142 117.607C20.2142 118.771 19.2708 119.714 18.1071 119.714Z" fill="#343366"/>
<path d="M18.1071 132.357C16.9433 132.357 15.9999 131.414 15.9999 130.25C15.9999 129.086 16.9433 128.143 18.1071 128.143C19.2708 128.143 20.2142 129.086 20.2142 130.25C20.2142 131.414 19.2708 132.357 18.1071 132.357Z" fill="#343366"/>
<path d="M18.1071 145C16.9433 145 15.9999 144.057 15.9999 142.893C15.9999 141.729 16.9433 140.786 18.1071 140.786C19.2708 140.786 20.2142 141.729 20.2142 142.893C20.2142 144.057 19.2708 145 18.1071 145Z" fill="#343366"/>
<path d="M1194.44 31.2137C1195.01 30.887 1195.58 30.5688 1196.16 30.2593C1195.79 30.8213 1195.16 31.1969 1194.44 31.2137Z" fill="#343366"/>
<path d="M1179.9 42.7513C1180.82 41.7694 1181.77 40.817 1182.75 39.8955C1183.41 40.2518 1183.86 40.9487 1183.86 41.75C1183.86 42.9137 1182.91 43.8571 1181.75 43.8571C1180.95 43.8571 1180.25 43.4098 1179.9 42.7513Z" fill="#343366"/>
<path d="M1170.26 56.1574C1170.57 55.5805 1170.89 55.009 1171.21 54.443C1171.2 55.1607 1170.82 55.7897 1170.26 56.1574Z" fill="#343366"/>
<path d="M1171.21 117.557C1170.89 116.991 1170.57 116.419 1170.26 115.843C1170.82 116.21 1171.2 116.839 1171.21 117.557Z" fill="#343366"/>
<path d="M1182.75 132.104C1181.77 131.183 1180.82 130.231 1179.9 129.249C1180.25 128.59 1180.95 128.143 1181.75 128.143C1182.91 128.143 1183.86 129.086 1183.86 130.25C1183.86 131.051 1183.41 131.748 1182.75 132.104Z" fill="#343366"/>
<path d="M1196.16 141.741C1195.58 141.431 1195.01 141.113 1194.44 140.786C1195.16 140.803 1195.79 141.179 1196.16 141.741Z" fill="#343366"/>
<path d="M1169.11 102.857C1170.27 102.857 1171.21 103.801 1171.21 104.964C1171.21 106.128 1170.27 107.071 1169.11 107.071C1167.94 107.071 1167 106.128 1167 104.964C1167 103.801 1167.94 102.857 1169.11 102.857Z" fill="#343366"/>
<path d="M1169.11 90.2143C1170.27 90.2143 1171.21 91.1577 1171.21 92.3214C1171.21 93.4852 1170.27 94.4286 1169.11 94.4286C1167.94 94.4286 1167 93.4852 1167 92.3214C1167 91.1577 1167.94 90.2143 1169.11 90.2143Z" fill="#343366"/>
<path d="M1169.11 77.5714C1170.27 77.5714 1171.21 78.5148 1171.21 79.6786C1171.21 80.8423 1170.27 81.7857 1169.11 81.7857C1167.94 81.7857 1167 80.8423 1167 79.6786C1167 78.5148 1167.94 77.5714 1169.11 77.5714Z" fill="#343366"/>
<path d="M1169.11 64.9286C1170.27 64.9286 1171.21 65.872 1171.21 67.0357C1171.21 68.1995 1170.27 69.1429 1169.11 69.1429C1167.94 69.1429 1167 68.1995 1167 67.0357C1167 65.872 1167.94 64.9286 1169.11 64.9286Z" fill="#343366"/>
<path d="M1181.75 115.5C1182.91 115.5 1183.86 116.443 1183.86 117.607C1183.86 118.771 1182.91 119.714 1181.75 119.714C1180.59 119.714 1179.64 118.771 1179.64 117.607C1179.64 116.443 1180.59 115.5 1181.75 115.5Z" fill="#343366"/>
<path d="M1181.75 102.857C1182.91 102.857 1183.86 103.801 1183.86 104.964C1183.86 106.128 1182.91 107.071 1181.75 107.071C1180.59 107.071 1179.64 106.128 1179.64 104.964C1179.64 103.801 1180.59 102.857 1181.75 102.857Z" fill="#343366"/>
<path d="M1181.75 90.2143C1182.91 90.2143 1183.86 91.1577 1183.86 92.3214C1183.86 93.4852 1182.91 94.4286 1181.75 94.4286C1180.59 94.4286 1179.64 93.4852 1179.64 92.3214C1179.64 91.1577 1180.59 90.2143 1181.75 90.2143Z" fill="#343366"/>
<path d="M1181.75 77.5714C1182.91 77.5714 1183.86 78.5148 1183.86 79.6786C1183.86 80.8423 1182.91 81.7857 1181.75 81.7857C1180.59 81.7857 1179.64 80.8423 1179.64 79.6786C1179.64 78.5148 1180.59 77.5714 1181.75 77.5714Z" fill="#343366"/>
<path d="M1181.75 64.9286C1182.91 64.9286 1183.86 65.872 1183.86 67.0357C1183.86 68.1995 1182.91 69.1429 1181.75 69.1429C1180.59 69.1429 1179.64 68.1995 1179.64 67.0357C1179.64 65.872 1180.59 64.9286 1181.75 64.9286Z" fill="#343366"/>
<path d="M1181.75 52.2857C1182.91 52.2857 1183.86 53.2291 1183.86 54.3929C1183.86 55.5566 1182.91 56.5 1181.75 56.5C1180.59 56.5 1179.64 55.5566 1179.64 54.3929C1179.64 53.2291 1180.59 52.2857 1181.75 52.2857Z" fill="#343366"/>
<path d="M1194.39 128.143C1195.56 128.143 1196.5 129.086 1196.5 130.25C1196.5 131.414 1195.56 132.357 1194.39 132.357C1193.23 132.357 1192.29 131.414 1192.29 130.25C1192.29 129.086 1193.23 128.143 1194.39 128.143Z" fill="#343366"/>
<path d="M1194.39 115.5C1195.56 115.5 1196.5 116.443 1196.5 117.607C1196.5 118.771 1195.56 119.714 1194.39 119.714C1193.23 119.714 1192.29 118.771 1192.29 117.607C1192.29 116.443 1193.23 115.5 1194.39 115.5Z" fill="#343366"/>
<path d="M1194.39 102.857C1195.56 102.857 1196.5 103.801 1196.5 104.964C1196.5 106.128 1195.56 107.071 1194.39 107.071C1193.23 107.071 1192.29 106.128 1192.29 104.964C1192.29 103.801 1193.23 102.857 1194.39 102.857Z" fill="#343366"/>
<path d="M1194.39 90.2143C1195.56 90.2143 1196.5 91.1577 1196.5 92.3214C1196.5 93.4852 1195.56 94.4286 1194.39 94.4286C1193.23 94.4286 1192.29 93.4852 1192.29 92.3214C1192.29 91.1577 1193.23 90.2143 1194.39 90.2143Z" fill="#343366"/>
<path d="M1194.39 77.5714C1195.56 77.5714 1196.5 78.5148 1196.5 79.6786C1196.5 80.8423 1195.56 81.7857 1194.39 81.7857C1193.23 81.7857 1192.29 80.8423 1192.29 79.6786C1192.29 78.5148 1193.23 77.5714 1194.39 77.5714Z" fill="#343366"/>
<path d="M1194.39 64.9286C1195.56 64.9286 1196.5 65.872 1196.5 67.0357C1196.5 68.1995 1195.56 69.1429 1194.39 69.1429C1193.23 69.1429 1192.29 68.1995 1192.29 67.0357C1192.29 65.872 1193.23 64.9286 1194.39 64.9286Z" fill="#343366"/>
<path d="M1194.39 52.2857C1195.56 52.2857 1196.5 53.2291 1196.5 54.3929C1196.5 55.5566 1195.56 56.5 1194.39 56.5C1193.23 56.5 1192.29 55.5566 1192.29 54.3929C1192.29 53.2291 1193.23 52.2857 1194.39 52.2857Z" fill="#343366"/>
<path d="M1194.39 39.6429C1195.56 39.6429 1196.5 40.5863 1196.5 41.75C1196.5 42.9137 1195.56 43.8571 1194.39 43.8571C1193.23 43.8571 1192.29 42.9137 1192.29 41.75C1192.29 40.5863 1193.23 39.6429 1194.39 39.6429Z" fill="#343366"/>
<path d="M1207.04 140.786C1208.2 140.786 1209.14 141.729 1209.14 142.893C1209.14 144.057 1208.2 145 1207.04 145C1205.87 145 1204.93 144.057 1204.93 142.893C1204.93 141.729 1205.87 140.786 1207.04 140.786Z" fill="#343366"/>
<path d="M1207.04 128.143C1208.2 128.143 1209.14 129.086 1209.14 130.25C1209.14 131.414 1208.2 132.357 1207.04 132.357C1205.87 132.357 1204.93 131.414 1204.93 130.25C1204.93 129.086 1205.87 128.143 1207.04 128.143Z" fill="#343366"/>
<path d="M1207.04 115.5C1208.2 115.5 1209.14 116.443 1209.14 117.607C1209.14 118.771 1208.2 119.714 1207.04 119.714C1205.87 119.714 1204.93 118.771 1204.93 117.607C1204.93 116.443 1205.87 115.5 1207.04 115.5Z" fill="#343366"/>
<path d="M1207.04 102.857C1208.2 102.857 1209.14 103.801 1209.14 104.964C1209.14 106.128 1208.2 107.071 1207.04 107.071C1205.87 107.071 1204.93 106.128 1204.93 104.964C1204.93 103.801 1205.87 102.857 1207.04 102.857Z" fill="#343366"/>
<path d="M1207.04 90.2143C1208.2 90.2143 1209.14 91.1577 1209.14 92.3214C1209.14 93.4852 1208.2 94.4286 1207.04 94.4286C1205.87 94.4286 1204.93 93.4852 1204.93 92.3214C1204.93 91.1577 1205.87 90.2143 1207.04 90.2143Z" fill="#343366"/>
<path d="M1207.04 77.5714C1208.2 77.5714 1209.14 78.5148 1209.14 79.6786C1209.14 80.8423 1208.2 81.7857 1207.04 81.7857C1205.87 81.7857 1204.93 80.8423 1204.93 79.6786C1204.93 78.5148 1205.87 77.5714 1207.04 77.5714Z" fill="#343366"/>
<path d="M1207.04 64.9286C1208.2 64.9286 1209.14 65.872 1209.14 67.0357C1209.14 68.1995 1208.2 69.1429 1207.04 69.1429C1205.87 69.1429 1204.93 68.1995 1204.93 67.0357C1204.93 65.872 1205.87 64.9286 1207.04 64.9286Z" fill="#343366"/>
<path d="M1207.04 52.2857C1208.2 52.2857 1209.14 53.2291 1209.14 54.3929C1209.14 55.5566 1208.2 56.5 1207.04 56.5C1205.87 56.5 1204.93 55.5566 1204.93 54.3929C1204.93 53.2291 1205.87 52.2857 1207.04 52.2857Z" fill="#343366"/>
<path d="M1207.04 39.6429C1208.2 39.6429 1209.14 40.5863 1209.14 41.75C1209.14 42.9137 1208.2 43.8571 1207.04 43.8571C1205.87 43.8571 1204.93 42.9137 1204.93 41.75C1204.93 40.5863 1205.87 39.6429 1207.04 39.6429Z" fill="#343366"/>
<path d="M1207.04 27C1208.2 27 1209.14 27.9434 1209.14 29.1071C1209.14 30.2709 1208.2 31.2143 1207.04 31.2143C1205.87 31.2143 1204.93 30.2709 1204.93 29.1071C1204.93 27.9434 1205.87 27 1207.04 27Z" fill="#343366"/>
<path d="M1219.68 140.786C1220.84 140.786 1221.79 141.729 1221.79 142.893C1221.79 144.057 1220.84 145 1219.68 145C1218.51 145 1217.57 144.057 1217.57 142.893C1217.57 141.729 1218.51 140.786 1219.68 140.786Z" fill="#343366"/>
<path d="M1219.68 128.143C1220.84 128.143 1221.79 129.086 1221.79 130.25C1221.79 131.414 1220.84 132.357 1219.68 132.357C1218.51 132.357 1217.57 131.414 1217.57 130.25C1217.57 129.086 1218.51 128.143 1219.68 128.143Z" fill="#343366"/>
<path d="M1219.68 115.5C1220.84 115.5 1221.79 116.443 1221.79 117.607C1221.79 118.771 1220.84 119.714 1219.68 119.714C1218.51 119.714 1217.57 118.771 1217.57 117.607C1217.57 116.443 1218.51 115.5 1219.68 115.5Z" fill="#343366"/>
<path d="M1219.68 102.857C1220.84 102.857 1221.79 103.801 1221.79 104.964C1221.79 106.128 1220.84 107.071 1219.68 107.071C1218.51 107.071 1217.57 106.128 1217.57 104.964C1217.57 103.801 1218.51 102.857 1219.68 102.857Z" fill="#343366"/>
<path d="M1219.68 90.2143C1220.84 90.2143 1221.79 91.1577 1221.79 92.3214C1221.79 93.4852 1220.84 94.4286 1219.68 94.4286C1218.51 94.4286 1217.57 93.4852 1217.57 92.3214C1217.57 91.1577 1218.51 90.2143 1219.68 90.2143Z" fill="#343366"/>
<path d="M1219.68 77.5714C1220.84 77.5714 1221.79 78.5148 1221.79 79.6786C1221.79 80.8423 1220.84 81.7857 1219.68 81.7857C1218.51 81.7857 1217.57 80.8423 1217.57 79.6786C1217.57 78.5148 1218.51 77.5714 1219.68 77.5714Z" fill="#343366"/>
<path d="M1219.68 64.9286C1220.84 64.9286 1221.79 65.872 1221.79 67.0357C1221.79 68.1995 1220.84 69.1429 1219.68 69.1429C1218.51 69.1429 1217.57 68.1995 1217.57 67.0357C1217.57 65.872 1218.51 64.9286 1219.68 64.9286Z" fill="#343366"/>
<path d="M1219.68 52.2857C1220.84 52.2857 1221.79 53.2291 1221.79 54.3929C1221.79 55.5566 1220.84 56.5 1219.68 56.5C1218.51 56.5 1217.57 55.5566 1217.57 54.3929C1217.57 53.2291 1218.51 52.2857 1219.68 52.2857Z" fill="#343366"/>
<path d="M1219.68 39.6429C1220.84 39.6429 1221.79 40.5863 1221.79 41.75C1221.79 42.9137 1220.84 43.8571 1219.68 43.8571C1218.51 43.8571 1217.57 42.9137 1217.57 41.75C1217.57 40.5863 1218.51 39.6429 1219.68 39.6429Z" fill="#343366"/>
<path d="M1219.68 27C1220.84 27 1221.79 27.9434 1221.79 29.1071C1221.79 30.2709 1220.84 31.2143 1219.68 31.2143C1218.51 31.2143 1217.57 30.2709 1217.57 29.1071C1217.57 27.9434 1218.51 27 1219.68 27Z" fill="#343366"/>
</svg>
