<svg width="63" height="17" viewBox="0 0 63 17" fill="none" xmlns="http://www.w3.org/2000/svg">
<g filter="url(#filter0_d_0_19590)">
<path d="M52.0596 1.05421C51.8186 0.424801 51.2287 0.000406265 50.5554 0.000406265C49.8814 0.000406265 49.2909 0.424801 49.0506 1.05421C47.758 4.43216 44.4901 6.83832 40.6633 6.83832C36.8365 6.83832 33.5693 4.43216 32.2767 1.05421C32.0357 0.424801 31.4451 0.000406265 30.7719 0.000406265C30.0978 0.000406265 29.508 0.424801 29.267 1.05421C27.9744 4.43216 24.7072 6.83832 20.8797 6.83832C17.0529 6.83832 13.785 4.43216 12.4924 1.05421C12.2514 0.424801 11.6615 0.000406265 10.9875 0.000406265C10.3142 0.000406265 9.72367 0.424801 9.48341 1.05421C8.608 3.34166 6.82479 5.18026 4.5769 6.13049C4.2345 6.27508 4 6.59589 4 6.9685C4 7.60726 4.65315 8.05469 5.24228 7.80868C7.80739 6.73617 9.87474 4.70263 10.9875 2.15694C12.6549 5.97008 16.4594 8.64453 20.8797 8.64453C25.3007 8.64453 29.1045 5.97008 30.7719 2.15694C32.4393 5.97008 36.243 8.64453 40.6633 8.64453C45.0835 8.64453 48.888 5.97008 50.5554 2.15694C51.7596 4.91196 54.0802 7.06921 56.9416 8.05613C57.5243 8.25682 58.1314 7.81012 58.1314 7.19366C58.1314 6.79875 57.8696 6.46427 57.4962 6.33335C54.9995 5.46153 53.0033 3.51862 52.0596 1.05421Z" fill="#333333"/>
</g>
<defs>
<filter id="filter0_d_0_19590" x="0" y="0" width="62.1318" height="16.6445" filterUnits="userSpaceOnUse" color-interpolation-filters="sRGB">
<feFlood flood-opacity="0" result="BackgroundImageFix"/>
<feColorMatrix in="SourceAlpha" type="matrix" values="0 0 0 0 0 0 0 0 0 0 0 0 0 0 0 0 0 0 127 0" result="hardAlpha"/>
<feOffset dy="4"/>
<feGaussianBlur stdDeviation="2"/>
<feComposite in2="hardAlpha" operator="out"/>
<feColorMatrix type="matrix" values="0 0 0 0 0 0 0 0 0 0 0 0 0 0 0 0 0 0 0.25 0"/>
<feBlend mode="normal" in2="BackgroundImageFix" result="effect1_dropShadow_0_19590"/>
<feBlend mode="normal" in="SourceGraphic" in2="effect1_dropShadow_0_19590" result="shape"/>
</filter>
</defs>
</svg>
